<svg width="87" height="10" viewBox="0 0 87 10" fill="none" xmlns="http://www.w3.org/2000/svg">
<path id="Vector" d="M38.7372 2.06356H34.3903C34.3862 2.06356 34.3838 2.06648 34.3838 2.0694V9.66049C34.3838 9.74081 34.3105 9.80652 34.2211 9.80652H32.1212C32.0317 9.80652 31.9585 9.74081 31.9585 9.66049V2.0694C31.9585 2.06575 31.9553 2.06356 31.952 2.06356H27.6173C27.5278 2.06356 27.4546 1.99785 27.4546 1.91753V0.217804C27.4546 0.13749 27.5278 0.0717792 27.6173 0.0717792H38.7372C38.8266 0.0717792 38.8999 0.13749 38.8999 0.217804V1.91753C38.8999 1.99858 38.8275 2.06356 38.7372 2.06356ZM69.6201 0.0717792H67.5203C67.4308 0.0717792 67.3576 0.13749 67.3576 0.217804V9.66122C67.3576 9.74154 67.4308 9.80725 67.5203 9.80725H69.6201C69.7096 9.80725 69.7829 9.74154 69.7829 9.66122V0.217804C69.7829 0.13676 69.7096 0.0717792 69.6201 0.0717792ZM86.5887 9.57069C86.6359 9.60719 86.653 9.66706 86.631 9.71963C86.609 9.7722 86.5529 9.80725 86.4903 9.80725H83.2563C83.2205 9.80725 83.1856 9.79557 83.1579 9.77439L79.605 7.01525C79.5725 6.9897 79.553 6.95246 79.553 6.91377C79.553 6.87434 79.5717 6.83784 79.605 6.81228L81.2216 5.55647C81.2777 5.51266 81.3615 5.51266 81.4177 5.55647L86.5887 9.57069ZM81.2232 4.32256C81.2517 4.34446 81.2867 4.35541 81.3217 4.35541C81.3567 4.35541 81.3916 4.34446 81.4201 4.32256L86.5895 0.307609C86.6367 0.271103 86.6538 0.211233 86.6318 0.158664C86.6098 0.106095 86.5537 0.0710491 86.4911 0.0710491H83.2571C83.2213 0.0710491 83.1864 0.0827311 83.1587 0.103905L79.6059 2.86304C79.5733 2.8886 79.5538 2.92583 79.5538 2.96453C79.5538 3.00396 79.5725 3.04046 79.6059 3.06602L81.2232 4.32256ZM80.5463 4.93951C80.5463 4.90009 80.5276 4.86358 80.4943 4.83803L74.3998 0.104635C74.373 0.0834612 74.338 0.0717792 74.3014 0.0717792H71.0675C71.0048 0.0717792 70.9487 0.106825 70.9267 0.159394C70.9048 0.211963 70.9219 0.271103 70.969 0.308339L76.9268 4.93513C76.93 4.93732 76.93 4.9417 76.9268 4.94462L70.969 9.57142C70.9219 9.60792 70.9048 9.66779 70.9267 9.72036C70.9487 9.77293 71.0048 9.80798 71.0675 9.80798H74.3014C74.3372 9.80798 74.3722 9.7963 74.3998 9.77512L80.4943 5.04173C80.5276 5.01545 80.5463 4.97821 80.5463 4.93951ZM2.42524 3.23614C2.42524 3.23102 2.43175 3.2281 2.43582 3.23102C2.75474 3.4873 10.0126 9.31952 10.3624 9.56631C10.6716 9.78388 11.0287 9.91896 11.4941 9.85763C12.0961 9.79191 12.7584 9.33048 12.7584 8.55363V0.217804C12.7584 0.13749 12.6851 0.0717792 12.5956 0.0717792H10.4958C10.4063 0.0717792 10.3331 0.13749 10.3331 0.217804V6.63632C10.3331 6.64143 10.3266 6.64435 10.3225 6.64143C10.0036 6.38516 2.74579 0.552931 2.39595 0.306149C2.0868 0.088572 1.72964 -0.0465008 1.26428 0.0148296C0.662243 0.0805407 0 0.542709 0 1.31883V9.66049C0 9.74081 0.073221 9.80652 0.162713 9.80652H2.26253C2.35202 9.80652 2.42524 9.74081 2.42524 9.66049V3.23614ZM55.7261 3.23614C55.7261 3.23102 55.7326 3.2281 55.7366 3.23102C56.0555 3.4873 63.3134 9.31952 63.6632 9.56631C63.9724 9.78388 64.3295 9.91896 64.7949 9.85763C65.3969 9.79191 66.0592 9.33048 66.0592 8.55363V0.217804C66.0592 0.13749 65.9859 0.0717792 65.8964 0.0717792H63.7966C63.7071 0.0717792 63.6339 0.13749 63.6339 0.217804V6.63632C63.6339 6.64143 63.6274 6.64435 63.6233 6.64143C63.3044 6.38516 56.0466 0.552931 55.6968 0.306149C55.3876 0.088572 55.0305 -0.0465008 54.5651 0.0148296C53.9631 0.0805407 53.3008 0.542709 53.3008 1.31883V9.66049C53.3008 9.74081 53.374 9.80652 53.4635 9.80652H55.5633C55.6528 9.80652 55.7261 9.74081 55.7261 9.66049V3.23614ZM20.8045 10C22.1127 9.99708 23.5707 9.93064 24.4656 9.45679C25.6566 8.82596 26.2359 7.94981 26.2359 6.77943L26.2367 0.217804C26.2367 0.13749 26.1635 0.0717792 26.074 0.0717792H23.9538C23.8643 0.0717792 23.7911 0.13749 23.7911 0.217804L23.7903 6.65165C23.77 7.93229 22.0021 7.94543 20.7264 7.94543H19.5671C18.2914 7.94543 16.5243 7.93302 16.5032 6.65165L16.5024 0.217804C16.5024 0.13749 16.4292 0.0717792 16.3397 0.0717792H14.2195C14.13 0.0717792 14.0568 0.13749 14.0568 0.217804L14.0576 6.77943C14.0576 7.94981 14.6369 8.82596 15.8279 9.45679C16.7229 9.93064 18.1808 9.99781 19.489 10H20.8045ZM52.3009 9.58748C52.3343 9.62983 52.3384 9.68532 52.3123 9.73205C52.2863 9.77804 52.2334 9.80725 52.1756 9.80725H49.5828C49.5307 9.80725 49.4819 9.78461 49.4518 9.74592L47.9394 7.80525C47.9378 7.80379 47.9362 7.80233 47.9337 7.80233H40.1593C40.1568 7.80233 40.1552 7.80306 40.1536 7.80525L38.6355 9.74811C38.607 9.78534 38.5598 9.80725 38.5102 9.80725H35.9173C35.8596 9.80725 35.8067 9.77804 35.7807 9.73205C35.7546 9.68605 35.7587 9.62983 35.792 9.58748C35.792 9.58748 42.386 1.14068 42.7928 0.636165C43.1996 0.131649 43.6088 0.000227098 44.0497 0.000227098C44.5354 0.000227098 44.9105 0.163045 45.2717 0.597468L52.3009 9.58748ZM46.3603 5.80106L44.053 2.86961C44.0506 2.86596 44.0449 2.86596 44.0416 2.86961L41.7335 5.80106C41.7303 5.80544 41.7335 5.81055 41.7392 5.81055H46.3546C46.3603 5.81055 46.3635 5.80471 46.3603 5.80106Z" fill="#919191"/>
</svg>
