<svg width="271" height="174" viewBox="0 0 271 174" fill="none" xmlns="http://www.w3.org/2000/svg">
<path d="M16.016 89.384C14.224 89.384 12.5067 89.1493 10.864 88.68C9.22133 88.1893 7.89867 87.56 6.896 86.792L8.656 82.888C9.616 83.5707 10.7467 84.136 12.048 84.584C13.3707 85.0107 14.704 85.224 16.048 85.224C17.072 85.224 17.8933 85.128 18.512 84.936C19.152 84.7227 19.6213 84.4347 19.92 84.072C20.2187 83.7093 20.368 83.2933 20.368 82.824C20.368 82.2267 20.1333 81.7573 19.664 81.416C19.1947 81.0533 18.576 80.7653 17.808 80.552C17.04 80.3173 16.1867 80.104 15.248 79.912C14.3307 79.6987 13.4027 79.4427 12.464 79.144C11.5467 78.8453 10.704 78.4613 9.936 77.992C9.168 77.5227 8.53867 76.904 8.048 76.136C7.57867 75.368 7.344 74.3867 7.344 73.192C7.344 71.912 7.68533 70.7493 8.368 69.704C9.072 68.6373 10.1173 67.7947 11.504 67.176C12.912 66.536 14.672 66.216 16.784 66.216C18.192 66.216 19.5787 66.3867 20.944 66.728C22.3093 67.048 23.5147 67.5387 24.56 68.2L22.96 72.136C21.9147 71.5387 20.8693 71.1013 19.824 70.824C18.7787 70.5253 17.7547 70.376 16.752 70.376C15.7493 70.376 14.928 70.4933 14.288 70.728C13.648 70.9627 13.1893 71.272 12.912 71.656C12.6347 72.0187 12.496 72.4453 12.496 72.936C12.496 73.512 12.7307 73.9813 13.2 74.344C13.6693 74.6853 14.288 74.9627 15.056 75.176C15.824 75.3893 16.6667 75.6027 17.584 75.816C18.5227 76.0293 19.4507 76.2747 20.368 76.552C21.3067 76.8293 22.16 77.2027 22.928 77.672C23.696 78.1413 24.3147 78.76 24.784 79.528C25.2747 80.296 25.52 81.2667 25.52 82.44C25.52 83.6987 25.168 84.8507 24.464 85.896C23.76 86.9413 22.704 87.784 21.296 88.424C19.9093 89.064 18.1493 89.384 16.016 89.384ZM39.2703 89V85.64L38.9503 84.904V78.888C38.9503 77.8213 38.6196 76.9893 37.9583 76.392C37.3183 75.7947 36.3263 75.496 34.9823 75.496C34.0649 75.496 33.1583 75.6453 32.2623 75.944C31.3876 76.2213 30.6409 76.6053 30.0223 77.096L28.2303 73.608C29.1689 72.9467 30.2996 72.4347 31.6223 72.072C32.9449 71.7093 34.2889 71.528 35.6543 71.528C38.2783 71.528 40.3156 72.1467 41.7663 73.384C43.2169 74.6213 43.9423 76.552 43.9423 79.176V89H39.2703ZM34.0223 89.256C32.6783 89.256 31.5263 89.032 30.5663 88.584C29.6063 88.1147 28.8703 87.4853 28.3583 86.696C27.8463 85.9067 27.5903 85.0213 27.5903 84.04C27.5903 83.016 27.8356 82.12 28.3263 81.352C28.8383 80.584 29.6383 79.9867 30.7263 79.56C31.8143 79.112 33.2329 78.888 34.9823 78.888H39.5583V81.8H35.5263C34.3529 81.8 33.5423 81.992 33.0943 82.376C32.6676 82.76 32.4543 83.24 32.4543 83.816C32.4543 84.456 32.6996 84.968 33.1903 85.352C33.7023 85.7147 34.3956 85.896 35.2703 85.896C36.1023 85.896 36.8489 85.704 37.5103 85.32C38.1716 84.9147 38.6516 84.328 38.9503 83.56L39.7183 85.864C39.3556 86.9733 38.6943 87.816 37.7343 88.392C36.7743 88.968 35.5369 89.256 34.0223 89.256ZM59.0203 89V85.64L58.7003 84.904V78.888C58.7003 77.8213 58.3696 76.9893 57.7083 76.392C57.0683 75.7947 56.0763 75.496 54.7323 75.496C53.8149 75.496 52.9083 75.6453 52.0123 75.944C51.1376 76.2213 50.3909 76.6053 49.7723 77.096L47.9803 73.608C48.9189 72.9467 50.0496 72.4347 51.3723 72.072C52.6949 71.7093 54.0389 71.528 55.4043 71.528C58.0283 71.528 60.0656 72.1467 61.5163 73.384C62.9669 74.6213 63.6923 76.552 63.6923 79.176V89H59.0203ZM53.7723 89.256C52.4283 89.256 51.2763 89.032 50.3163 88.584C49.3563 88.1147 48.6203 87.4853 48.1083 86.696C47.5963 85.9067 47.3403 85.0213 47.3403 84.04C47.3403 83.016 47.5856 82.12 48.0763 81.352C48.5883 80.584 49.3883 79.9867 50.4763 79.56C51.5643 79.112 52.9829 78.888 54.7323 78.888H59.3083V81.8H55.2763C54.1029 81.8 53.2923 81.992 52.8443 82.376C52.4176 82.76 52.2043 83.24 52.2043 83.816C52.2043 84.456 52.4496 84.968 52.9403 85.352C53.4523 85.7147 54.1456 85.896 55.0203 85.896C55.8523 85.896 56.5989 85.704 57.2603 85.32C57.9216 84.9147 58.4016 84.328 58.7003 83.56L59.4683 85.864C59.1056 86.9733 58.4443 87.816 57.4843 88.392C56.5243 88.968 55.2869 89.256 53.7723 89.256ZM74.0023 89.256C72.5303 89.256 71.1116 89.0853 69.7463 88.744C68.4023 88.3813 67.3356 87.9333 66.5463 87.4L68.2103 83.816C68.9996 84.3067 69.9276 84.712 70.9943 85.032C72.0823 85.3307 73.1489 85.48 74.1943 85.48C75.3463 85.48 76.1569 85.3413 76.6263 85.064C77.1169 84.7867 77.3623 84.4027 77.3623 83.912C77.3623 83.5067 77.1703 83.208 76.7863 83.016C76.4236 82.8027 75.9329 82.6427 75.3142 82.536C74.6956 82.4293 74.0129 82.3227 73.2663 82.216C72.5409 82.1093 71.8049 81.9707 71.0583 81.8C70.3116 81.608 69.6289 81.3307 69.0103 80.968C68.3916 80.6053 67.8903 80.1147 67.5063 79.496C67.1436 78.8773 66.9622 78.0773 66.9622 77.096C66.9622 76.008 67.2716 75.048 67.8903 74.216C68.5303 73.384 69.4476 72.7333 70.6423 72.264C71.8369 71.7733 73.2663 71.528 74.9303 71.528C76.1036 71.528 77.2983 71.656 78.5143 71.912C79.7303 72.168 80.7436 72.5413 81.5543 73.032L79.8903 76.584C79.0583 76.0933 78.2156 75.7627 77.3623 75.592C76.5303 75.4 75.7196 75.304 74.9303 75.304C73.8209 75.304 73.0103 75.4533 72.4983 75.752C71.9863 76.0507 71.7303 76.4347 71.7303 76.904C71.7303 77.3307 71.9116 77.6507 72.2743 77.864C72.6583 78.0773 73.1596 78.248 73.7783 78.376C74.3969 78.504 75.0689 78.6213 75.7943 78.728C76.5409 78.8133 77.2876 78.952 78.0343 79.144C78.7809 79.336 79.4529 79.6133 80.0503 79.976C80.6689 80.3173 81.1703 80.7973 81.5543 81.416C81.9383 82.0133 82.1303 82.8027 82.1303 83.784C82.1303 84.8507 81.8103 85.8 81.1703 86.632C80.5303 87.4427 79.6023 88.0827 78.3863 88.552C77.1916 89.0213 75.7303 89.256 74.0023 89.256ZM13.424 114.624H24.208V118.656H13.424V114.624ZM13.808 123.84H26V128H8.656V105.6H25.584V109.76H13.808V123.84ZM40.2368 110.528C41.6021 110.528 42.8181 110.805 43.8848 111.36C44.9728 111.893 45.8261 112.725 46.4448 113.856C47.0634 114.965 47.3728 116.395 47.3728 118.144V128H42.3808V118.912C42.3808 117.525 42.0714 116.501 41.4528 115.84C40.8554 115.179 40.0021 114.848 38.8928 114.848C38.1034 114.848 37.3888 115.019 36.7488 115.36C36.1301 115.68 35.6394 116.181 35.2768 116.864C34.9354 117.547 34.7648 118.421 34.7648 119.488V128H29.7728V110.784H34.5408V115.552L33.6448 114.112C34.2634 112.96 35.1488 112.075 36.3008 111.456C37.4528 110.837 38.7648 110.528 40.2368 110.528ZM60.1188 134.464C58.4974 134.464 56.9294 134.261 55.4148 133.856C53.9214 133.472 52.6734 132.885 51.6708 132.096L53.6548 128.512C54.3801 129.109 55.2974 129.579 56.4068 129.92C57.5374 130.283 58.6468 130.464 59.7348 130.464C61.5054 130.464 62.7854 130.069 63.5748 129.28C64.3854 128.491 64.7908 127.317 64.7908 125.76V123.168L65.1108 118.848L65.0468 114.496V110.784H69.7828V125.12C69.7828 128.32 68.9508 130.677 67.2868 132.192C65.6228 133.707 63.2334 134.464 60.1188 134.464ZM59.3508 127.168C57.7508 127.168 56.3001 126.827 54.9988 126.144C53.7188 125.44 52.6841 124.469 51.8948 123.232C51.1268 121.973 50.7428 120.512 50.7428 118.848C50.7428 117.163 51.1268 115.701 51.8948 114.464C52.6841 113.205 53.7188 112.235 54.9988 111.552C56.3001 110.869 57.7508 110.528 59.3508 110.528C60.8014 110.528 62.0814 110.827 63.1908 111.424C64.3001 112 65.1641 112.907 65.7828 114.144C66.4014 115.36 66.7108 116.928 66.7108 118.848C66.7108 120.747 66.4014 122.315 65.7828 123.552C65.1641 124.768 64.3001 125.675 63.1908 126.272C62.0814 126.869 60.8014 127.168 59.3508 127.168ZM60.3428 123.072C61.2174 123.072 61.9961 122.901 62.6788 122.56C63.3614 122.197 63.8948 121.696 64.2788 121.056C64.6628 120.416 64.8548 119.68 64.8548 118.848C64.8548 117.995 64.6628 117.259 64.2788 116.64C63.8948 116 63.3614 115.509 62.6788 115.168C61.9961 114.805 61.2174 114.624 60.3428 114.624C59.4681 114.624 58.6894 114.805 58.0068 115.168C57.3241 115.509 56.7801 116 56.3748 116.64C55.9908 117.259 55.7988 117.995 55.7988 118.848C55.7988 119.68 55.9908 120.416 56.3748 121.056C56.7801 121.696 57.3241 122.197 58.0068 122.56C58.6894 122.901 59.4681 123.072 60.3428 123.072ZM74.429 128V110.784H79.421V128H74.429ZM76.925 108.384C76.0077 108.384 75.261 108.117 74.685 107.584C74.109 107.051 73.821 106.389 73.821 105.6C73.821 104.811 74.109 104.149 74.685 103.616C75.261 103.083 76.0077 102.816 76.925 102.816C77.8423 102.816 78.589 103.072 79.165 103.584C79.741 104.075 80.029 104.715 80.029 105.504C80.029 106.336 79.741 107.029 79.165 107.584C78.6103 108.117 77.8637 108.384 76.925 108.384ZM94.518 110.528C95.8833 110.528 97.0993 110.805 98.166 111.36C99.254 111.893 100.107 112.725 100.726 113.856C101.345 114.965 101.654 116.395 101.654 118.144V128H96.662V118.912C96.662 117.525 96.3527 116.501 95.734 115.84C95.1367 115.179 94.2833 114.848 93.174 114.848C92.3847 114.848 91.67 115.019 91.03 115.36C90.4113 115.68 89.9207 116.181 89.558 116.864C89.2167 117.547 89.046 118.421 89.046 119.488V128H84.054V110.784H88.822V115.552L87.926 114.112C88.5447 112.96 89.43 112.075 90.582 111.456C91.734 110.837 93.046 110.528 94.518 110.528ZM114.848 128.256C112.885 128.256 111.157 127.872 109.664 127.104C108.192 126.336 107.051 125.291 106.24 123.968C105.429 122.624 105.024 121.099 105.024 119.392C105.024 117.664 105.419 116.139 106.208 114.816C107.019 113.472 108.117 112.427 109.504 111.68C110.891 110.912 112.459 110.528 114.208 110.528C115.893 110.528 117.408 110.891 118.752 111.616C120.117 112.32 121.195 113.344 121.984 114.688C122.773 116.011 123.168 117.6 123.168 119.456C123.168 119.648 123.157 119.872 123.136 120.128C123.115 120.363 123.093 120.587 123.072 120.8H109.088V117.888H120.448L118.528 118.752C118.528 117.856 118.347 117.077 117.984 116.416C117.621 115.755 117.12 115.243 116.48 114.88C115.84 114.496 115.093 114.304 114.24 114.304C113.387 114.304 112.629 114.496 111.968 114.88C111.328 115.243 110.827 115.765 110.464 116.448C110.101 117.109 109.92 117.899 109.92 118.816V119.584C109.92 120.523 110.123 121.355 110.528 122.08C110.955 122.784 111.541 123.328 112.288 123.712C113.056 124.075 113.952 124.256 114.976 124.256C115.893 124.256 116.693 124.117 117.376 123.84C118.08 123.563 118.72 123.147 119.296 122.592L121.952 125.472C121.163 126.368 120.171 127.061 118.976 127.552C117.781 128.021 116.405 128.256 114.848 128.256ZM135.036 128.256C133.073 128.256 131.345 127.872 129.852 127.104C128.38 126.336 127.238 125.291 126.428 123.968C125.617 122.624 125.212 121.099 125.212 119.392C125.212 117.664 125.606 116.139 126.396 114.816C127.206 113.472 128.305 112.427 129.692 111.68C131.078 110.912 132.646 110.528 134.396 110.528C136.081 110.528 137.596 110.891 138.94 111.616C140.305 112.32 141.382 113.344 142.172 114.688C142.961 116.011 143.356 117.6 143.356 119.456C143.356 119.648 143.345 119.872 143.324 120.128C143.302 120.363 143.281 120.587 143.26 120.8H129.276V117.888H140.635L138.716 118.752C138.716 117.856 138.534 117.077 138.172 116.416C137.809 115.755 137.308 115.243 136.668 114.88C136.028 114.496 135.281 114.304 134.428 114.304C133.574 114.304 132.817 114.496 132.156 114.88C131.516 115.243 131.014 115.765 130.652 116.448C130.289 117.109 130.108 117.899 130.108 118.816V119.584C130.108 120.523 130.31 121.355 130.716 122.08C131.142 122.784 131.729 123.328 132.476 123.712C133.244 124.075 134.14 124.256 135.164 124.256C136.081 124.256 136.881 124.117 137.564 123.84C138.268 123.563 138.908 123.147 139.484 122.592L142.14 125.472C141.35 126.368 140.358 127.061 139.164 127.552C137.969 128.021 136.593 128.256 135.036 128.256ZM146.679 128V110.784H151.447V115.648L150.775 114.24C151.287 113.024 152.108 112.107 153.239 111.488C154.37 110.848 155.746 110.528 157.367 110.528V115.136C157.154 115.115 156.962 115.104 156.791 115.104C156.62 115.083 156.439 115.072 156.247 115.072C154.882 115.072 153.772 115.467 152.919 116.256C152.087 117.024 151.671 118.229 151.671 119.872V128H146.679ZM160.367 128V110.784H165.359V128H160.367ZM162.863 108.384C161.945 108.384 161.199 108.117 160.623 107.584C160.047 107.051 159.759 106.389 159.759 105.6C159.759 104.811 160.047 104.149 160.623 103.616C161.199 103.083 161.945 102.816 162.863 102.816C163.78 102.816 164.527 103.072 165.103 103.584C165.679 104.075 165.967 104.715 165.967 105.504C165.967 106.336 165.679 107.029 165.103 107.584C164.548 108.117 163.801 108.384 162.863 108.384ZM180.456 110.528C181.821 110.528 183.037 110.805 184.104 111.36C185.192 111.893 186.045 112.725 186.664 113.856C187.282 114.965 187.592 116.395 187.592 118.144V128H182.6V118.912C182.6 117.525 182.29 116.501 181.672 115.84C181.074 115.179 180.221 114.848 179.112 114.848C178.322 114.848 177.608 115.019 176.968 115.36C176.349 115.68 175.858 116.181 175.496 116.864C175.154 117.547 174.984 118.421 174.984 119.488V128H169.992V110.784H174.76V115.552L173.864 114.112C174.482 112.96 175.368 112.075 176.52 111.456C177.672 110.837 178.984 110.528 180.456 110.528ZM200.338 134.464C198.716 134.464 197.148 134.261 195.634 133.856C194.14 133.472 192.892 132.885 191.89 132.096L193.874 128.512C194.599 129.109 195.516 129.579 196.626 129.92C197.756 130.283 198.866 130.464 199.954 130.464C201.724 130.464 203.004 130.069 203.794 129.28C204.604 128.491 205.01 127.317 205.01 125.76V123.168L205.33 118.848L205.266 114.496V110.784H210.002V125.12C210.002 128.32 209.17 130.677 207.506 132.192C205.842 133.707 203.452 134.464 200.338 134.464ZM199.57 127.168C197.97 127.168 196.519 126.827 195.218 126.144C193.938 125.44 192.903 124.469 192.114 123.232C191.346 121.973 190.962 120.512 190.962 118.848C190.962 117.163 191.346 115.701 192.114 114.464C192.903 113.205 193.938 112.235 195.218 111.552C196.519 110.869 197.97 110.528 199.57 110.528C201.02 110.528 202.3 110.827 203.41 111.424C204.519 112 205.383 112.907 206.002 114.144C206.62 115.36 206.93 116.928 206.93 118.848C206.93 120.747 206.62 122.315 206.002 123.552C205.383 124.768 204.519 125.675 203.41 126.272C202.3 126.869 201.02 127.168 199.57 127.168ZM200.562 123.072C201.436 123.072 202.215 122.901 202.898 122.56C203.58 122.197 204.114 121.696 204.498 121.056C204.882 120.416 205.074 119.68 205.074 118.848C205.074 117.995 204.882 117.259 204.498 116.64C204.114 116 203.58 115.509 202.898 115.168C202.215 114.805 201.436 114.624 200.562 114.624C199.687 114.624 198.908 114.805 198.226 115.168C197.543 115.509 196.999 116 196.594 116.64C196.21 117.259 196.018 117.995 196.018 118.848C196.018 119.68 196.21 120.416 196.594 121.056C196.999 121.696 197.543 122.197 198.226 122.56C198.908 122.901 199.687 123.072 200.562 123.072ZM8.656 167V144.6H18.832C21.264 144.6 23.408 145.069 25.264 146.008C27.12 146.925 28.5707 148.216 29.616 149.88C30.6613 151.544 31.184 153.517 31.184 155.8C31.184 158.061 30.6613 160.035 29.616 161.72C28.5707 163.384 27.12 164.685 25.264 165.624C23.408 166.541 21.264 167 18.832 167H8.656ZM13.84 162.744H18.576C20.0693 162.744 21.36 162.467 22.448 161.912C23.5573 161.336 24.4107 160.525 25.008 159.48C25.6267 158.435 25.936 157.208 25.936 155.8C25.936 154.371 25.6267 153.144 25.008 152.12C24.4107 151.075 23.5573 150.275 22.448 149.72C21.36 149.144 20.0693 148.856 18.576 148.856H13.84V162.744ZM43.2855 167.256C41.3228 167.256 39.5948 166.872 38.1015 166.104C36.6295 165.336 35.4882 164.291 34.6775 162.968C33.8668 161.624 33.4615 160.099 33.4615 158.392C33.4615 156.664 33.8562 155.139 34.6455 153.816C35.4562 152.472 36.5548 151.427 37.9415 150.68C39.3282 149.912 40.8962 149.528 42.6455 149.528C44.3308 149.528 45.8455 149.891 47.1895 150.616C48.5548 151.32 49.6322 152.344 50.4215 153.688C51.2108 155.011 51.6055 156.6 51.6055 158.456C51.6055 158.648 51.5948 158.872 51.5735 159.128C51.5522 159.363 51.5308 159.587 51.5095 159.8H37.5255V156.888H48.8855L46.9655 157.752C46.9655 156.856 46.7842 156.077 46.4215 155.416C46.0588 154.755 45.5575 154.243 44.9175 153.88C44.2775 153.496 43.5308 153.304 42.6775 153.304C41.8242 153.304 41.0668 153.496 40.4055 153.88C39.7655 154.243 39.2642 154.765 38.9015 155.448C38.5388 156.109 38.3575 156.899 38.3575 157.816V158.584C38.3575 159.523 38.5602 160.355 38.9655 161.08C39.3922 161.784 39.9788 162.328 40.7255 162.712C41.4935 163.075 42.3895 163.256 43.4135 163.256C44.3308 163.256 45.1308 163.117 45.8135 162.84C46.5175 162.563 47.1575 162.147 47.7335 161.592L50.3895 164.472C49.6002 165.368 48.6082 166.061 47.4135 166.552C46.2188 167.021 44.8428 167.256 43.2855 167.256ZM76.977 149.528C78.3423 149.528 79.5477 149.805 80.593 150.36C81.6597 150.893 82.4917 151.725 83.089 152.856C83.7077 153.965 84.017 155.395 84.017 157.144V167H79.025V157.912C79.025 156.525 78.737 155.501 78.161 154.84C77.585 154.179 76.7743 153.848 75.729 153.848C75.0037 153.848 74.353 154.019 73.777 154.36C73.201 154.68 72.753 155.171 72.433 155.832C72.113 156.493 71.953 157.336 71.953 158.36V167H66.961V157.912C66.961 156.525 66.673 155.501 66.097 154.84C65.5423 154.179 64.7423 153.848 63.697 153.848C62.9717 153.848 62.321 154.019 61.745 154.36C61.169 154.68 60.721 155.171 60.401 155.832C60.081 156.493 59.921 157.336 59.921 158.36V167H54.929V149.784H59.697V154.488L58.801 153.112C59.3983 151.939 60.241 151.053 61.329 150.456C62.4383 149.837 63.697 149.528 65.105 149.528C66.6837 149.528 68.0597 149.933 69.233 150.744C70.4277 151.533 71.217 152.749 71.601 154.392L69.841 153.912C70.417 152.568 71.3343 151.501 72.593 150.712C73.873 149.923 75.3343 149.528 76.977 149.528ZM96.8085 167.256C94.9738 167.256 93.3418 166.872 91.9125 166.104C90.5045 165.336 89.3845 164.291 88.5525 162.968C87.7418 161.624 87.3365 160.099 87.3365 158.392C87.3365 156.664 87.7418 155.139 88.5525 153.816C89.3845 152.472 90.5045 151.427 91.9125 150.68C93.3418 149.912 94.9738 149.528 96.8085 149.528C98.6218 149.528 100.243 149.912 101.673 150.68C103.102 151.427 104.222 152.461 105.033 153.784C105.843 155.107 106.249 156.643 106.249 158.392C106.249 160.099 105.843 161.624 105.033 162.968C104.222 164.291 103.102 165.336 101.673 166.104C100.243 166.872 98.6218 167.256 96.8085 167.256ZM96.8085 163.16C97.6405 163.16 98.3872 162.968 99.0485 162.584C99.7098 162.2 100.233 161.656 100.617 160.952C101.001 160.227 101.193 159.373 101.193 158.392C101.193 157.389 101.001 156.536 100.617 155.832C100.233 155.128 99.7098 154.584 99.0485 154.2C98.3872 153.816 97.6405 153.624 96.8085 153.624C95.9765 153.624 95.2298 153.816 94.5685 154.2C93.9072 154.584 93.3738 155.128 92.9685 155.832C92.5845 156.536 92.3925 157.389 92.3925 158.392C92.3925 159.373 92.5845 160.227 92.9685 160.952C93.3738 161.656 93.9072 162.2 94.5685 162.584C95.2298 162.968 95.9765 163.16 96.8085 163.16ZM119 167V144.6H129.176C131.608 144.6 133.752 145.069 135.608 146.008C137.464 146.925 138.914 148.216 139.96 149.88C141.005 151.544 141.528 153.517 141.528 155.8C141.528 158.061 141.005 160.035 139.96 161.72C138.914 163.384 137.464 164.685 135.608 165.624C133.752 166.541 131.608 167 129.176 167H119ZM124.184 162.744H128.92C130.413 162.744 131.704 162.467 132.792 161.912C133.901 161.336 134.754 160.525 135.352 159.48C135.97 158.435 136.28 157.208 136.28 155.8C136.28 154.371 135.97 153.144 135.352 152.12C134.754 151.075 133.901 150.275 132.792 149.72C131.704 149.144 130.413 148.856 128.92 148.856H124.184V162.744ZM155.645 167V163.64L155.325 162.904V156.888C155.325 155.821 154.995 154.989 154.333 154.392C153.693 153.795 152.701 153.496 151.357 153.496C150.44 153.496 149.533 153.645 148.637 153.944C147.763 154.221 147.016 154.605 146.397 155.096L144.605 151.608C145.544 150.947 146.675 150.435 147.997 150.072C149.32 149.709 150.664 149.528 152.029 149.528C154.653 149.528 156.691 150.147 158.141 151.384C159.592 152.621 160.317 154.552 160.317 157.176V167H155.645ZM150.397 167.256C149.053 167.256 147.901 167.032 146.941 166.584C145.981 166.115 145.245 165.485 144.733 164.696C144.221 163.907 143.965 163.021 143.965 162.04C143.965 161.016 144.211 160.12 144.701 159.352C145.213 158.584 146.013 157.987 147.101 157.56C148.189 157.112 149.608 156.888 151.357 156.888H155.933V159.8H151.901C150.728 159.8 149.917 159.992 149.469 160.376C149.043 160.76 148.829 161.24 148.829 161.816C148.829 162.456 149.075 162.968 149.565 163.352C150.077 163.715 150.771 163.896 151.645 163.896C152.477 163.896 153.224 163.704 153.885 163.32C154.547 162.915 155.027 162.328 155.325 161.56L156.093 163.864C155.731 164.973 155.069 165.816 154.109 166.392C153.149 166.968 151.912 167.256 150.397 167.256ZM166.699 173.464C165.803 173.464 164.917 173.325 164.043 173.048C163.168 172.771 162.453 172.387 161.899 171.896L163.723 168.344C164.107 168.685 164.544 168.952 165.035 169.144C165.547 169.336 166.048 169.432 166.539 169.432C167.243 169.432 167.797 169.261 168.203 168.92C168.629 168.6 169.013 168.056 169.355 167.288L170.251 165.176L170.635 164.632L176.811 149.784H181.611L173.835 168.056C173.28 169.443 172.64 170.531 171.915 171.32C171.211 172.109 170.421 172.664 169.547 172.984C168.693 173.304 167.744 173.464 166.699 173.464ZM169.643 167.672L161.963 149.784H167.115L173.067 164.184L169.643 167.672Z" fill="white"/>
<path fill-rule="evenodd" clip-rule="evenodd" d="M37.8634 0.768527C38.5754 0.93984 39.2715 1.16046 39.9317 1.46615C44.1011 3.39742 47.2355 6.37073 48.8358 10.769C49.0752 11.4263 49.3478 11.8663 50.1562 11.87C50.6236 11.873 51.0961 12.0125 51.56 12.1494C51.6535 12.177 51.7467 12.2046 51.8394 12.2308C55.3385 13.2195 58.1819 15.1599 60.4562 18.0044C61.7121 19.5753 62.5701 21.3067 63.1465 23.141L58.3945 23.141C57.9925 22.3099 57.4804 21.4875 56.8559 20.6758C54.2317 17.2643 50.694 15.8172 46.4546 16.1744C45.5835 16.248 45.4399 15.9037 45.3736 15.3054C45.1765 13.4975 44.6204 11.8332 43.6572 10.2775C42.2255 7.96392 40.2859 6.36166 37.8634 5.45616L37.8634 0.768527Z" fill="#7855FA"/>
<path fill-rule="evenodd" clip-rule="evenodd" d="M30.9709 0.413015C28.3588 0.919435 25.927 1.85644 23.7971 3.47966C22.3422 4.58798 21.0936 5.90433 20.0752 7.42505C19.718 7.95895 19.3128 8.17988 18.6498 8.17988C14.2853 8.18725 9.96858 11.1661 8.52845 15.3342C8.12503 16.502 7.31809 17.0163 6.43851 17.5768L6.42719 17.584C2.93922 19.8062 0.928201 23.0115 0.0865905 27.0047C0.0698631 27.0832 0.0486381 27.1608 0.0273177 27.2387C0.0181243 27.2723 0.00891563 27.306 3.88228e-05 27.3398L3.83975e-05 32.2039C0.66301 35.4717 2.19337 38.272 4.66479 40.5126C7.22644 42.8341 10.2411 44.2278 13.7346 44.2407C25.2096 44.2831 36.6864 44.2775 48.1614 44.2444C51.8869 44.2352 55.1557 42.8581 57.9899 40.4886C60.2661 38.5868 61.9954 36.2487 62.9585 33.4319C63.6772 31.3291 64.1639 29.1403 63.9487 26.9274L59.468 26.9274C59.6831 29.2879 59.083 31.6944 57.7174 34.1075C56.0268 37.0956 53.3436 38.9716 49.8943 39.5976C48.5831 39.8351 47.2608 39.9639 45.9257 39.9621C42.3202 39.9554 38.7156 39.9565 35.1107 39.9576C33.7588 39.958 32.4069 39.9584 31.0548 39.9584C29.5001 39.9579 27.9457 39.9596 26.3913 39.9613C22.7275 39.9654 19.0644 39.9695 15.4013 39.9437C13.7549 39.9326 12.0846 39.7853 10.5616 39.1078C7.16015 37.5926 5.07362 35.0023 4.4217 31.3073C3.62797 26.8059 6.23751 21.7669 11.1343 20.1191C11.9391 19.8485 12.1951 19.4711 12.2798 18.6058C12.5928 15.4042 15.1158 12.8286 18.4325 12.6445C19.3938 12.5911 20.3349 12.6629 21.2318 13.0789C21.7842 13.3348 22.2133 13.2097 22.438 12.5726C23.2133 10.3707 24.4822 8.49654 26.3772 7.11759C28.0456 5.90433 29.8467 5.0151 31.9774 4.78313C32.4361 4.73295 32.8914 4.7012 33.3434 4.69128L33.3434 1.54223e-06C31.7701 0.0409827 31.0204 0.389188 30.9709 0.413015Z" fill="white"/>
<path fill-rule="evenodd" clip-rule="evenodd" d="M34.7021 26.3526C34.7684 26.3526 34.8282 26.3813 34.8717 26.4276L39.2332 30.4957C39.2906 30.5427 39.3277 30.6169 39.3277 30.7004C39.3277 30.8423 39.2203 30.9576 39.0878 30.9576H36.1167C36.0513 30.9576 35.9918 30.9294 35.9485 30.8837L33.0623 28.192C33.0097 28.1445 32.9766 28.074 32.9766 27.9948C32.9766 27.9284 33.0002 27.8678 33.0388 27.8221L34.5243 26.4367C34.5682 26.3851 34.6316 26.3526 34.7021 26.3526ZM39.0878 19.9653C39.2203 19.9653 39.3277 20.0806 39.3277 20.2226C39.3277 20.306 39.2906 20.3801 39.2332 20.4271L34.8717 24.4952C34.8282 24.5416 34.7684 24.5703 34.7021 24.5703C34.6316 24.5703 34.5682 24.5379 34.5243 24.4862L33.0388 23.1009C33.0002 23.0552 32.9766 22.9946 32.9766 22.9281C32.9766 22.8491 33.0097 22.7784 33.0623 22.731L35.9485 20.0391C35.9918 19.9935 36.0513 19.9653 36.1167 19.9653H39.0878Z" fill="white"/>
<path fill-rule="evenodd" clip-rule="evenodd" d="M28.036 30.89C27.9935 30.9318 27.9368 30.9576 27.8745 30.9576H24.9109C24.7789 30.9576 24.6719 30.8423 24.6719 30.7002C24.6719 30.6293 24.6986 30.5651 24.7418 30.5187L29.9352 25.658C29.9873 25.6109 30.0203 25.5402 30.0203 25.4612C30.0203 25.3865 29.9907 25.3194 29.9436 25.2725L24.7565 20.4187C24.7047 20.3716 24.6719 20.3013 24.6719 20.2226C24.6719 20.0806 24.7789 19.9653 24.9109 19.9653H27.8745C27.9371 19.9653 27.994 19.991 28.0365 20.0332L33.6275 25.2671C33.6781 25.3142 33.71 25.3835 33.71 25.4612C33.71 25.539 33.678 25.6089 33.6271 25.6562L28.036 30.89Z" fill="white"/>
</svg>
