<svg width="435" height="196" viewBox="0 0 435 196" fill="none" xmlns="http://www.w3.org/2000/svg">
<path d="M7.825 120.3C6.425 120.3 5.08333 120.117 3.8 119.75C2.51667 119.367 1.48333 118.875 0.7 118.275L2.075 115.225C2.825 115.758 3.70833 116.2 4.725 116.55C5.75833 116.883 6.8 117.05 7.85 117.05C8.65 117.05 9.29167 116.975 9.775 116.825C10.275 116.658 10.6417 116.433 10.875 116.15C11.1083 115.867 11.225 115.542 11.225 115.175C11.225 114.708 11.0417 114.342 10.675 114.075C10.3083 113.792 9.825 113.567 9.225 113.4C8.625 113.217 7.95833 113.05 7.225 112.9C6.50833 112.733 5.78333 112.533 5.05 112.3C4.33333 112.067 3.675 111.767 3.075 111.4C2.475 111.033 1.98333 110.55 1.6 109.95C1.23333 109.35 1.05 108.583 1.05 107.65C1.05 106.65 1.31667 105.742 1.85 104.925C2.4 104.092 3.21667 103.433 4.3 102.95C5.4 102.45 6.775 102.2 8.425 102.2C9.525 102.2 10.6083 102.333 11.675 102.6C12.7417 102.85 13.6833 103.233 14.5 103.75L13.25 106.825C12.4333 106.358 11.6167 106.017 10.8 105.8C9.98333 105.567 9.18333 105.45 8.4 105.45C7.61667 105.45 6.975 105.542 6.475 105.725C5.975 105.908 5.61667 106.15 5.4 106.45C5.18333 106.733 5.075 107.067 5.075 107.45C5.075 107.9 5.25833 108.267 5.625 108.55C5.99167 108.817 6.475 109.033 7.075 109.2C7.675 109.367 8.33333 109.533 9.05 109.7C9.78333 109.867 10.5083 110.058 11.225 110.275C11.9583 110.492 12.625 110.783 13.225 111.15C13.825 111.517 14.3083 112 14.675 112.6C15.0583 113.2 15.25 113.958 15.25 114.875C15.25 115.858 14.975 116.758 14.425 117.575C13.875 118.392 13.05 119.05 11.95 119.55C10.8667 120.05 9.49167 120.3 7.825 120.3ZM25.9924 120V117.375L25.7424 116.8V112.1C25.7424 111.267 25.4841 110.617 24.9674 110.15C24.4674 109.683 23.6924 109.45 22.6424 109.45C21.9257 109.45 21.2174 109.567 20.5174 109.8C19.834 110.017 19.2507 110.317 18.7674 110.7L17.3674 107.975C18.1007 107.458 18.984 107.058 20.0174 106.775C21.0507 106.492 22.1007 106.35 23.1674 106.35C25.2174 106.35 26.8091 106.833 27.9424 107.8C29.0757 108.767 29.6424 110.275 29.6424 112.325V120H25.9924ZM21.8924 120.2C20.8424 120.2 19.9424 120.025 19.1924 119.675C18.4424 119.308 17.8674 118.817 17.4674 118.2C17.0674 117.583 16.8674 116.892 16.8674 116.125C16.8674 115.325 17.059 114.625 17.4424 114.025C17.8424 113.425 18.4674 112.958 19.3174 112.625C20.1674 112.275 21.2757 112.1 22.6424 112.1H26.2174V114.375H23.0674C22.1507 114.375 21.5174 114.525 21.1674 114.825C20.834 115.125 20.6674 115.5 20.6674 115.95C20.6674 116.45 20.859 116.85 21.2424 117.15C21.6424 117.433 22.184 117.575 22.8674 117.575C23.5174 117.575 24.1007 117.425 24.6174 117.125C25.134 116.808 25.509 116.35 25.7424 115.75L26.3424 117.55C26.059 118.417 25.5424 119.075 24.7924 119.525C24.0424 119.975 23.0757 120.2 21.8924 120.2ZM41.4221 120V117.375L41.1721 116.8V112.1C41.1721 111.267 40.9137 110.617 40.3971 110.15C39.8971 109.683 39.1221 109.45 38.0721 109.45C37.3554 109.45 36.6471 109.567 35.9471 109.8C35.2637 110.017 34.6804 110.317 34.1971 110.7L32.7971 107.975C33.5304 107.458 34.4137 107.058 35.4471 106.775C36.4804 106.492 37.5304 106.35 38.5971 106.35C40.6471 106.35 42.2387 106.833 43.3721 107.8C44.5054 108.767 45.0721 110.275 45.0721 112.325V120H41.4221ZM37.3221 120.2C36.2721 120.2 35.3721 120.025 34.6221 119.675C33.8721 119.308 33.2971 118.817 32.8971 118.2C32.4971 117.583 32.2971 116.892 32.2971 116.125C32.2971 115.325 32.4887 114.625 32.8721 114.025C33.2721 113.425 33.8971 112.958 34.7471 112.625C35.5971 112.275 36.7054 112.1 38.0721 112.1H41.6471V114.375H38.4971C37.5804 114.375 36.9471 114.525 36.5971 114.825C36.2637 115.125 36.0971 115.5 36.0971 115.95C36.0971 116.45 36.2887 116.85 36.6721 117.15C37.0721 117.433 37.6137 117.575 38.2971 117.575C38.9471 117.575 39.5304 117.425 40.0471 117.125C40.5637 116.808 40.9387 116.35 41.1721 115.75L41.7721 117.55C41.4887 118.417 40.9721 119.075 40.2221 119.525C39.4721 119.975 38.5054 120.2 37.3221 120.2ZM53.1268 120.2C51.9768 120.2 50.8684 120.067 49.8018 119.8C48.7518 119.517 47.9184 119.167 47.3018 118.75L48.6018 115.95C49.2184 116.333 49.9434 116.65 50.7768 116.9C51.6268 117.133 52.4601 117.25 53.2768 117.25C54.1768 117.25 54.8101 117.142 55.1768 116.925C55.5601 116.708 55.7518 116.408 55.7518 116.025C55.7518 115.708 55.6018 115.475 55.3018 115.325C55.0184 115.158 54.6351 115.033 54.1518 114.95C53.6684 114.867 53.1351 114.783 52.5518 114.7C51.9851 114.617 51.4101 114.508 50.8268 114.375C50.2434 114.225 49.7101 114.008 49.2268 113.725C48.7434 113.442 48.3518 113.058 48.0518 112.575C47.7684 112.092 47.6268 111.467 47.6268 110.7C47.6268 109.85 47.8684 109.1 48.3518 108.45C48.8518 107.8 49.5684 107.292 50.5018 106.925C51.4351 106.542 52.5518 106.35 53.8518 106.35C54.7684 106.35 55.7018 106.45 56.6518 106.65C57.6018 106.85 58.3934 107.142 59.0268 107.525L57.7268 110.3C57.0768 109.917 56.4184 109.658 55.7518 109.525C55.1018 109.375 54.4684 109.3 53.8518 109.3C52.9851 109.3 52.3518 109.417 51.9518 109.65C51.5518 109.883 51.3518 110.183 51.3518 110.55C51.3518 110.883 51.4934 111.133 51.7768 111.3C52.0768 111.467 52.4684 111.6 52.9518 111.7C53.4351 111.8 53.9601 111.892 54.5268 111.975C55.1101 112.042 55.6934 112.15 56.2768 112.3C56.8601 112.45 57.3851 112.667 57.8518 112.95C58.3351 113.217 58.7268 113.592 59.0268 114.075C59.3268 114.542 59.4768 115.158 59.4768 115.925C59.4768 116.758 59.2268 117.5 58.7268 118.15C58.2268 118.783 57.5018 119.283 56.5518 119.65C55.6184 120.017 54.4768 120.2 53.1268 120.2ZM72.9631 109.55H81.3881V112.7H72.9631V109.55ZM73.2631 116.75H82.7881V120H69.2381V102.5H82.4631V105.75H73.2631V116.75ZM93.9105 106.35C94.9772 106.35 95.9272 106.567 96.7605 107C97.6105 107.417 98.2772 108.067 98.7605 108.95C99.2439 109.817 99.4855 110.933 99.4855 112.3V120H95.5855V112.9C95.5855 111.817 95.3439 111.017 94.8605 110.5C94.3939 109.983 93.7272 109.725 92.8605 109.725C92.2439 109.725 91.6855 109.858 91.1855 110.125C90.7022 110.375 90.3189 110.767 90.0355 111.3C89.7689 111.833 89.6355 112.517 89.6355 113.35V120H85.7355V106.55H89.4605V110.275L88.7605 109.15C89.2439 108.25 89.9355 107.558 90.8355 107.075C91.7355 106.592 92.7605 106.35 93.9105 106.35ZM109.443 125.05C108.177 125.05 106.952 124.892 105.768 124.575C104.602 124.275 103.627 123.817 102.843 123.2L104.393 120.4C104.96 120.867 105.677 121.233 106.543 121.5C107.427 121.783 108.293 121.925 109.143 121.925C110.527 121.925 111.527 121.617 112.143 121C112.777 120.383 113.093 119.467 113.093 118.25V116.225L113.343 112.85L113.293 109.45V106.55H116.993V117.75C116.993 120.25 116.343 122.092 115.043 123.275C113.743 124.458 111.877 125.05 109.443 125.05ZM108.843 119.35C107.593 119.35 106.46 119.083 105.443 118.55C104.443 118 103.635 117.242 103.018 116.275C102.418 115.292 102.118 114.15 102.118 112.85C102.118 111.533 102.418 110.392 103.018 109.425C103.635 108.442 104.443 107.683 105.443 107.15C106.46 106.617 107.593 106.35 108.843 106.35C109.977 106.35 110.977 106.583 111.843 107.05C112.71 107.5 113.385 108.208 113.868 109.175C114.352 110.125 114.593 111.35 114.593 112.85C114.593 114.333 114.352 115.558 113.868 116.525C113.385 117.475 112.71 118.183 111.843 118.65C110.977 119.117 109.977 119.35 108.843 119.35ZM109.618 116.15C110.302 116.15 110.91 116.017 111.443 115.75C111.977 115.467 112.393 115.075 112.693 114.575C112.993 114.075 113.143 113.5 113.143 112.85C113.143 112.183 112.993 111.608 112.693 111.125C112.393 110.625 111.977 110.242 111.443 109.975C110.91 109.692 110.302 109.55 109.618 109.55C108.935 109.55 108.327 109.692 107.793 109.975C107.26 110.242 106.835 110.625 106.518 111.125C106.218 111.608 106.068 112.183 106.068 112.85C106.068 113.5 106.218 114.075 106.518 114.575C106.835 115.075 107.26 115.467 107.793 115.75C108.327 116.017 108.935 116.15 109.618 116.15ZM120.623 120V106.55H124.523V120H120.623ZM122.573 104.675C121.857 104.675 121.273 104.467 120.823 104.05C120.373 103.633 120.148 103.117 120.148 102.5C120.148 101.883 120.373 101.367 120.823 100.95C121.273 100.533 121.857 100.325 122.573 100.325C123.29 100.325 123.873 100.525 124.323 100.925C124.773 101.308 124.998 101.808 124.998 102.425C124.998 103.075 124.773 103.617 124.323 104.05C123.89 104.467 123.307 104.675 122.573 104.675ZM136.318 106.35C137.384 106.35 138.334 106.567 139.168 107C140.018 107.417 140.684 108.067 141.168 108.95C141.651 109.817 141.893 110.933 141.893 112.3V120H137.993V112.9C137.993 111.817 137.751 111.017 137.268 110.5C136.801 109.983 136.134 109.725 135.268 109.725C134.651 109.725 134.093 109.858 133.593 110.125C133.109 110.375 132.726 110.767 132.443 111.3C132.176 111.833 132.043 112.517 132.043 113.35V120H128.143V106.55H131.868V110.275L131.168 109.15C131.651 108.25 132.343 107.558 133.243 107.075C134.143 106.592 135.168 106.35 136.318 106.35ZM152.201 120.2C150.667 120.2 149.317 119.9 148.151 119.3C147.001 118.7 146.109 117.883 145.476 116.85C144.842 115.8 144.526 114.608 144.526 113.275C144.526 111.925 144.834 110.733 145.451 109.7C146.084 108.65 146.942 107.833 148.026 107.25C149.109 106.65 150.334 106.35 151.701 106.35C153.017 106.35 154.201 106.633 155.251 107.2C156.317 107.75 157.159 108.55 157.776 109.6C158.392 110.633 158.701 111.875 158.701 113.325C158.701 113.475 158.692 113.65 158.676 113.85C158.659 114.033 158.642 114.208 158.626 114.375H147.701V112.1H156.576L155.076 112.775C155.076 112.075 154.934 111.467 154.651 110.95C154.367 110.433 153.976 110.033 153.476 109.75C152.976 109.45 152.392 109.3 151.726 109.3C151.059 109.3 150.467 109.45 149.951 109.75C149.451 110.033 149.059 110.442 148.776 110.975C148.492 111.492 148.351 112.108 148.351 112.825V113.425C148.351 114.158 148.509 114.808 148.826 115.375C149.159 115.925 149.617 116.35 150.201 116.65C150.801 116.933 151.501 117.075 152.301 117.075C153.017 117.075 153.642 116.967 154.176 116.75C154.726 116.533 155.226 116.208 155.676 115.775L157.751 118.025C157.134 118.725 156.359 119.267 155.426 119.65C154.492 120.017 153.417 120.2 152.201 120.2ZM167.972 120.2C166.439 120.2 165.089 119.9 163.922 119.3C162.772 118.7 161.88 117.883 161.247 116.85C160.614 115.8 160.297 114.608 160.297 113.275C160.297 111.925 160.605 110.733 161.222 109.7C161.855 108.65 162.714 107.833 163.797 107.25C164.88 106.65 166.105 106.35 167.472 106.35C168.789 106.35 169.972 106.633 171.022 107.2C172.089 107.75 172.93 108.55 173.547 109.6C174.164 110.633 174.472 111.875 174.472 113.325C174.472 113.475 174.464 113.65 174.447 113.85C174.43 114.033 174.414 114.208 174.397 114.375H163.472V112.1H172.347L170.847 112.775C170.847 112.075 170.705 111.467 170.422 110.95C170.139 110.433 169.747 110.033 169.247 109.75C168.747 109.45 168.164 109.3 167.497 109.3C166.83 109.3 166.239 109.45 165.722 109.75C165.222 110.033 164.83 110.442 164.547 110.975C164.264 111.492 164.122 112.108 164.122 112.825V113.425C164.122 114.158 164.28 114.808 164.597 115.375C164.93 115.925 165.389 116.35 165.972 116.65C166.572 116.933 167.272 117.075 168.072 117.075C168.789 117.075 169.414 116.967 169.947 116.75C170.497 116.533 170.997 116.208 171.447 115.775L173.522 118.025C172.905 118.725 172.13 119.267 171.197 119.65C170.264 120.017 169.189 120.2 167.972 120.2ZM177.069 120V106.55H180.794V110.35L180.269 109.25C180.669 108.3 181.31 107.583 182.194 107.1C183.077 106.6 184.152 106.35 185.419 106.35V109.95C185.252 109.933 185.102 109.925 184.969 109.925C184.835 109.908 184.694 109.9 184.544 109.9C183.477 109.9 182.61 110.208 181.944 110.825C181.294 111.425 180.969 112.367 180.969 113.65V120H177.069ZM187.762 120V106.55H191.662V120H187.762ZM189.712 104.675C188.995 104.675 188.412 104.467 187.962 104.05C187.512 103.633 187.287 103.117 187.287 102.5C187.287 101.883 187.512 101.367 187.962 100.95C188.412 100.533 188.995 100.325 189.712 100.325C190.429 100.325 191.012 100.525 191.462 100.925C191.912 101.308 192.137 101.808 192.137 102.425C192.137 103.075 191.912 103.617 191.462 104.05C191.029 104.467 190.445 104.675 189.712 104.675ZM203.456 106.35C204.523 106.35 205.473 106.567 206.306 107C207.156 107.417 207.823 108.067 208.306 108.95C208.79 109.817 209.031 110.933 209.031 112.3V120H205.131V112.9C205.131 111.817 204.89 111.017 204.406 110.5C203.94 109.983 203.273 109.725 202.406 109.725C201.79 109.725 201.231 109.858 200.731 110.125C200.248 110.375 199.865 110.767 199.581 111.3C199.315 111.833 199.181 112.517 199.181 113.35V120H195.281V106.55H199.006V110.275L198.306 109.15C198.79 108.25 199.481 107.558 200.381 107.075C201.281 106.592 202.306 106.35 203.456 106.35ZM218.989 125.05C217.723 125.05 216.498 124.892 215.314 124.575C214.148 124.275 213.173 123.817 212.389 123.2L213.939 120.4C214.506 120.867 215.223 121.233 216.089 121.5C216.973 121.783 217.839 121.925 218.689 121.925C220.073 121.925 221.073 121.617 221.689 121C222.323 120.383 222.639 119.467 222.639 118.25V116.225L222.889 112.85L222.839 109.45V106.55H226.539V117.75C226.539 120.25 225.889 122.092 224.589 123.275C223.289 124.458 221.423 125.05 218.989 125.05ZM218.389 119.35C217.139 119.35 216.006 119.083 214.989 118.55C213.989 118 213.181 117.242 212.564 116.275C211.964 115.292 211.664 114.15 211.664 112.85C211.664 111.533 211.964 110.392 212.564 109.425C213.181 108.442 213.989 107.683 214.989 107.15C216.006 106.617 217.139 106.35 218.389 106.35C219.523 106.35 220.523 106.583 221.389 107.05C222.256 107.5 222.931 108.208 223.414 109.175C223.898 110.125 224.139 111.35 224.139 112.85C224.139 114.333 223.898 115.558 223.414 116.525C222.931 117.475 222.256 118.183 221.389 118.65C220.523 119.117 219.523 119.35 218.389 119.35ZM219.164 116.15C219.848 116.15 220.456 116.017 220.989 115.75C221.523 115.467 221.939 115.075 222.239 114.575C222.539 114.075 222.689 113.5 222.689 112.85C222.689 112.183 222.539 111.608 222.239 111.125C221.939 110.625 221.523 110.242 220.989 109.975C220.456 109.692 219.848 109.55 219.164 109.55C218.481 109.55 217.873 109.692 217.339 109.975C216.806 110.242 216.381 110.625 216.064 111.125C215.764 111.608 215.614 112.183 215.614 112.85C215.614 113.5 215.764 114.075 216.064 114.575C216.381 115.075 216.806 115.467 217.339 115.75C217.873 116.017 218.481 116.15 219.164 116.15ZM2.075 149V131.5H10.025C11.925 131.5 13.6 131.867 15.05 132.6C16.5 133.317 17.6333 134.325 18.45 135.625C19.2667 136.925 19.675 138.467 19.675 140.25C19.675 142.017 19.2667 143.558 18.45 144.875C17.6333 146.175 16.5 147.192 15.05 147.925C13.6 148.642 11.925 149 10.025 149H2.075ZM6.125 145.675H9.825C10.9917 145.675 12 145.458 12.85 145.025C13.7167 144.575 14.3833 143.942 14.85 143.125C15.3333 142.308 15.575 141.35 15.575 140.25C15.575 139.133 15.3333 138.175 14.85 137.375C14.3833 136.558 13.7167 135.933 12.85 135.5C12 135.05 10.9917 134.825 9.825 134.825H6.125V145.675ZM29.1293 149.2C27.596 149.2 26.246 148.9 25.0793 148.3C23.9293 147.7 23.0376 146.883 22.4043 145.85C21.771 144.8 21.4543 143.608 21.4543 142.275C21.4543 140.925 21.7626 139.733 22.3793 138.7C23.0126 137.65 23.871 136.833 24.9543 136.25C26.0376 135.65 27.2626 135.35 28.6293 135.35C29.946 135.35 31.1293 135.633 32.1793 136.2C33.246 136.75 34.0876 137.55 34.7043 138.6C35.321 139.633 35.6293 140.875 35.6293 142.325C35.6293 142.475 35.621 142.65 35.6043 142.85C35.5876 143.033 35.571 143.208 35.5543 143.375H24.6293V141.1H33.5043L32.0043 141.775C32.0043 141.075 31.8626 140.467 31.5793 139.95C31.296 139.433 30.9043 139.033 30.4043 138.75C29.9043 138.45 29.321 138.3 28.6543 138.3C27.9876 138.3 27.396 138.45 26.8793 138.75C26.3793 139.033 25.9876 139.442 25.7043 139.975C25.421 140.492 25.2793 141.108 25.2793 141.825V142.425C25.2793 143.158 25.4376 143.808 25.7543 144.375C26.0876 144.925 26.546 145.35 27.1293 145.65C27.7293 145.933 28.4293 146.075 29.2293 146.075C29.946 146.075 30.571 145.967 31.1043 145.75C31.6543 145.533 32.1543 145.208 32.6043 144.775L34.6793 147.025C34.0626 147.725 33.2876 148.267 32.3543 148.65C31.421 149.017 30.346 149.2 29.1293 149.2ZM55.4508 135.35C56.5174 135.35 57.4591 135.567 58.2758 136C59.1091 136.417 59.7591 137.067 60.2258 137.95C60.7091 138.817 60.9508 139.933 60.9508 141.3V149H57.0508V141.9C57.0508 140.817 56.8258 140.017 56.3758 139.5C55.9258 138.983 55.2924 138.725 54.4758 138.725C53.9091 138.725 53.4008 138.858 52.9508 139.125C52.5008 139.375 52.1508 139.758 51.9008 140.275C51.6508 140.792 51.5258 141.45 51.5258 142.25V149H47.6258V141.9C47.6258 140.817 47.4008 140.017 46.9508 139.5C46.5174 138.983 45.8924 138.725 45.0758 138.725C44.5091 138.725 44.0008 138.858 43.5508 139.125C43.1008 139.375 42.7508 139.758 42.5008 140.275C42.2508 140.792 42.1258 141.45 42.1258 142.25V149H38.2258V135.55H41.9508V139.225L41.2508 138.15C41.7174 137.233 42.3758 136.542 43.2258 136.075C44.0924 135.592 45.0758 135.35 46.1758 135.35C47.4091 135.35 48.4841 135.667 49.4008 136.3C50.3341 136.917 50.9508 137.867 51.2508 139.15L49.8758 138.775C50.3258 137.725 51.0424 136.892 52.0258 136.275C53.0258 135.658 54.1674 135.35 55.4508 135.35ZM70.9441 149.2C69.5108 149.2 68.2358 148.9 67.1191 148.3C66.0191 147.7 65.1441 146.883 64.4941 145.85C63.8608 144.8 63.5441 143.608 63.5441 142.275C63.5441 140.925 63.8608 139.733 64.4941 138.7C65.1441 137.65 66.0191 136.833 67.1191 136.25C68.2358 135.65 69.5108 135.35 70.9441 135.35C72.3608 135.35 73.6275 135.65 74.7441 136.25C75.8608 136.833 76.7358 137.642 77.3691 138.675C78.0025 139.708 78.3191 140.908 78.3191 142.275C78.3191 143.608 78.0025 144.8 77.3691 145.85C76.7358 146.883 75.8608 147.7 74.7441 148.3C73.6275 148.9 72.3608 149.2 70.9441 149.2ZM70.9441 146C71.5941 146 72.1775 145.85 72.6941 145.55C73.2108 145.25 73.6191 144.825 73.9191 144.275C74.2191 143.708 74.3691 143.042 74.3691 142.275C74.3691 141.492 74.2191 140.825 73.9191 140.275C73.6191 139.725 73.2108 139.3 72.6941 139C72.1775 138.7 71.5941 138.55 70.9441 138.55C70.2941 138.55 69.7108 138.7 69.1941 139C68.6775 139.3 68.2608 139.725 67.9441 140.275C67.6441 140.825 67.4941 141.492 67.4941 142.275C67.4941 143.042 67.6441 143.708 67.9441 144.275C68.2608 144.825 68.6775 145.25 69.1941 145.55C69.7108 145.85 70.2941 146 70.9441 146ZM88.2811 149V131.5H96.2311C98.1311 131.5 99.8061 131.867 101.256 132.6C102.706 133.317 103.839 134.325 104.656 135.625C105.473 136.925 105.881 138.467 105.881 140.25C105.881 142.017 105.473 143.558 104.656 144.875C103.839 146.175 102.706 147.192 101.256 147.925C99.8061 148.642 98.1311 149 96.2311 149H88.2811ZM92.3311 145.675H96.0311C97.1977 145.675 98.2061 145.458 99.0561 145.025C99.9227 144.575 100.589 143.942 101.056 143.125C101.539 142.308 101.781 141.35 101.781 140.25C101.781 139.133 101.539 138.175 101.056 137.375C100.589 136.558 99.9227 135.933 99.0561 135.5C98.2061 135.05 97.1977 134.825 96.0311 134.825H92.3311V145.675ZM116.91 149V146.375L116.66 145.8V141.1C116.66 140.267 116.402 139.617 115.885 139.15C115.385 138.683 114.61 138.45 113.56 138.45C112.844 138.45 112.135 138.567 111.435 138.8C110.752 139.017 110.169 139.317 109.685 139.7L108.285 136.975C109.019 136.458 109.902 136.058 110.935 135.775C111.969 135.492 113.019 135.35 114.085 135.35C116.135 135.35 117.727 135.833 118.86 136.8C119.994 137.767 120.56 139.275 120.56 141.325V149H116.91ZM112.81 149.2C111.76 149.2 110.86 149.025 110.11 148.675C109.36 148.308 108.785 147.817 108.385 147.2C107.985 146.583 107.785 145.892 107.785 145.125C107.785 144.325 107.977 143.625 108.36 143.025C108.76 142.425 109.385 141.958 110.235 141.625C111.085 141.275 112.194 141.1 113.56 141.1H117.135V143.375H113.985C113.069 143.375 112.435 143.525 112.085 143.825C111.752 144.125 111.585 144.5 111.585 144.95C111.585 145.45 111.777 145.85 112.16 146.15C112.56 146.433 113.102 146.575 113.785 146.575C114.435 146.575 115.019 146.425 115.535 146.125C116.052 145.808 116.427 145.35 116.66 144.75L117.26 146.55C116.977 147.417 116.46 148.075 115.71 148.525C114.96 148.975 113.994 149.2 112.81 149.2ZM125.546 154.05C124.846 154.05 124.154 153.942 123.471 153.725C122.788 153.508 122.229 153.208 121.796 152.825L123.221 150.05C123.521 150.317 123.863 150.525 124.246 150.675C124.646 150.825 125.038 150.9 125.421 150.9C125.971 150.9 126.404 150.767 126.721 150.5C127.054 150.25 127.354 149.825 127.621 149.225L128.321 147.575L128.621 147.15L133.446 135.55H137.196L131.121 149.825C130.688 150.908 130.188 151.758 129.621 152.375C129.071 152.992 128.454 153.425 127.771 153.675C127.104 153.925 126.363 154.05 125.546 154.05ZM127.846 149.525L121.846 135.55H125.871L130.521 146.8L127.846 149.525Z" fill="white"/>
<path d="M5.7 190V175.8H0.1V172.5H15.35V175.8H9.75V190H5.7ZM25.4291 176.35C26.4958 176.35 27.4458 176.567 28.2791 177C29.1291 177.417 29.7958 178.067 30.2791 178.95C30.7624 179.817 31.0041 180.933 31.0041 182.3V190H27.1041V182.9C27.1041 181.817 26.8624 181.017 26.3791 180.5C25.9124 179.983 25.2458 179.725 24.3791 179.725C23.7624 179.725 23.2041 179.858 22.7041 180.125C22.2208 180.375 21.8374 180.767 21.5541 181.3C21.2874 181.833 21.1541 182.517 21.1541 183.35V190H17.2541V171.45H21.1541V180.275L20.2791 179.15C20.7624 178.25 21.4541 177.558 22.3541 177.075C23.2541 176.592 24.2791 176.35 25.4291 176.35ZM40.2143 190.2C39.0976 190.2 38.0976 189.983 37.2143 189.55C36.3476 189.117 35.6726 188.458 35.1893 187.575C34.7059 186.675 34.4643 185.533 34.4643 184.15V176.55H38.3643V183.575C38.3643 184.692 38.5976 185.517 39.0643 186.05C39.5476 186.567 40.2226 186.825 41.0893 186.825C41.6893 186.825 42.2226 186.7 42.6893 186.45C43.1559 186.183 43.5226 185.783 43.7893 185.25C44.0559 184.7 44.1893 184.017 44.1893 183.2V176.55H48.0893V190H44.3893V186.3L45.0643 187.375C44.6143 188.308 43.9476 189.017 43.0643 189.5C42.1976 189.967 41.2476 190.2 40.2143 190.2ZM51.7023 190V176.55H55.4273V180.35L54.9023 179.25C55.3023 178.3 55.944 177.583 56.8273 177.1C57.7107 176.6 58.7857 176.35 60.0523 176.35V179.95C59.8857 179.933 59.7357 179.925 59.6023 179.925C59.469 179.908 59.3273 179.9 59.1773 179.9C58.1107 179.9 57.244 180.208 56.5773 180.825C55.9273 181.425 55.6023 182.367 55.6023 183.65V190H51.7023ZM66.9939 190.2C65.8439 190.2 64.7356 190.067 63.6689 189.8C62.6189 189.517 61.7856 189.167 61.1689 188.75L62.4689 185.95C63.0856 186.333 63.8106 186.65 64.6439 186.9C65.4939 187.133 66.3273 187.25 67.1439 187.25C68.0439 187.25 68.6773 187.142 69.0439 186.925C69.4273 186.708 69.6189 186.408 69.6189 186.025C69.6189 185.708 69.4689 185.475 69.1689 185.325C68.8856 185.158 68.5023 185.033 68.0189 184.95C67.5356 184.867 67.0023 184.783 66.4189 184.7C65.8523 184.617 65.2773 184.508 64.6939 184.375C64.1106 184.225 63.5773 184.008 63.0939 183.725C62.6106 183.442 62.2189 183.058 61.9189 182.575C61.6356 182.092 61.4939 181.467 61.4939 180.7C61.4939 179.85 61.7356 179.1 62.2189 178.45C62.7189 177.8 63.4356 177.292 64.3689 176.925C65.3023 176.542 66.4189 176.35 67.7189 176.35C68.6356 176.35 69.5689 176.45 70.5189 176.65C71.4689 176.85 72.2606 177.142 72.8939 177.525L71.5939 180.3C70.9439 179.917 70.2856 179.658 69.6189 179.525C68.9689 179.375 68.3356 179.3 67.7189 179.3C66.8523 179.3 66.2189 179.417 65.8189 179.65C65.4189 179.883 65.2189 180.183 65.2189 180.55C65.2189 180.883 65.3606 181.133 65.6439 181.3C65.9439 181.467 66.3356 181.6 66.8189 181.7C67.3023 181.8 67.8273 181.892 68.3939 181.975C68.9773 182.042 69.5606 182.15 70.1439 182.3C70.7273 182.45 71.2523 182.667 71.7189 182.95C72.2023 183.217 72.5939 183.592 72.8939 184.075C73.1939 184.542 73.3439 185.158 73.3439 185.925C73.3439 186.758 73.0939 187.5 72.5939 188.15C72.0939 188.783 71.3689 189.283 70.4189 189.65C69.4856 190.017 68.3439 190.2 66.9939 190.2ZM81.5252 190.2C80.2585 190.2 79.1169 189.917 78.1002 189.35C77.0835 188.767 76.2752 187.958 75.6752 186.925C75.0919 185.892 74.8002 184.675 74.8002 183.275C74.8002 181.858 75.0919 180.633 75.6752 179.6C76.2752 178.567 77.0835 177.767 78.1002 177.2C79.1169 176.633 80.2585 176.35 81.5252 176.35C82.6585 176.35 83.6502 176.6 84.5002 177.1C85.3502 177.6 86.0085 178.358 86.4752 179.375C86.9419 180.392 87.1752 181.692 87.1752 183.275C87.1752 184.842 86.9502 186.142 86.5002 187.175C86.0502 188.192 85.4002 188.95 84.5502 189.45C83.7169 189.95 82.7085 190.2 81.5252 190.2ZM82.2002 187C82.8335 187 83.4085 186.85 83.9252 186.55C84.4419 186.25 84.8502 185.825 85.1502 185.275C85.4669 184.708 85.6252 184.042 85.6252 183.275C85.6252 182.492 85.4669 181.825 85.1502 181.275C84.8502 180.725 84.4419 180.3 83.9252 180C83.4085 179.7 82.8335 179.55 82.2002 179.55C81.5502 179.55 80.9669 179.7 80.4502 180C79.9335 180.3 79.5169 180.725 79.2002 181.275C78.9002 181.825 78.7502 182.492 78.7502 183.275C78.7502 184.042 78.9002 184.708 79.2002 185.275C79.5169 185.825 79.9335 186.25 80.4502 186.55C80.9669 186.85 81.5502 187 82.2002 187ZM85.7252 190V187.25L85.8002 183.25L85.5502 179.275V171.45H89.4502V190H85.7252ZM101.31 190V187.375L101.06 186.8V182.1C101.06 181.267 100.801 180.617 100.285 180.15C99.7848 179.683 99.0098 179.45 97.9598 179.45C97.2431 179.45 96.5348 179.567 95.8348 179.8C95.1514 180.017 94.5681 180.317 94.0848 180.7L92.6848 177.975C93.4181 177.458 94.3014 177.058 95.3348 176.775C96.3681 176.492 97.4181 176.35 98.4848 176.35C100.535 176.35 102.126 176.833 103.26 177.8C104.393 178.767 104.96 180.275 104.96 182.325V190H101.31ZM97.2098 190.2C96.1598 190.2 95.2598 190.025 94.5098 189.675C93.7598 189.308 93.1848 188.817 92.7848 188.2C92.3848 187.583 92.1848 186.892 92.1848 186.125C92.1848 185.325 92.3764 184.625 92.7598 184.025C93.1598 183.425 93.7848 182.958 94.6348 182.625C95.4848 182.275 96.5931 182.1 97.9598 182.1H101.535V184.375H98.3848C97.4681 184.375 96.8348 184.525 96.4848 184.825C96.1514 185.125 95.9848 185.5 95.9848 185.95C95.9848 186.45 96.1764 186.85 96.5598 187.15C96.9598 187.433 97.5014 187.575 98.1848 187.575C98.8348 187.575 99.4181 187.425 99.9348 187.125C100.451 186.808 100.826 186.35 101.06 185.75L101.66 187.55C101.376 188.417 100.86 189.075 100.11 189.525C99.3598 189.975 98.3931 190.2 97.2098 190.2ZM109.945 195.05C109.245 195.05 108.554 194.942 107.87 194.725C107.187 194.508 106.629 194.208 106.195 193.825L107.62 191.05C107.92 191.317 108.262 191.525 108.645 191.675C109.045 191.825 109.437 191.9 109.82 191.9C110.37 191.9 110.804 191.767 111.12 191.5C111.454 191.25 111.754 190.825 112.02 190.225L112.72 188.575L113.02 188.15L117.845 176.55H121.595L115.52 190.825C115.087 191.908 114.587 192.758 114.02 193.375C113.47 193.992 112.854 194.425 112.17 194.675C111.504 194.925 110.762 195.05 109.945 195.05ZM112.245 190.525L106.245 176.55H110.27L114.92 187.8L112.245 190.525ZM130.542 190V172.5H133.892L141.342 184.85H139.567L146.892 172.5H150.217L150.267 190H146.467L146.442 178.325H147.142L141.292 188.15H139.467L133.492 178.325H134.342V190H130.542ZM162.394 190V187.375L162.144 186.8V182.1C162.144 181.267 161.885 180.617 161.369 180.15C160.869 179.683 160.094 179.45 159.044 179.45C158.327 179.45 157.619 179.567 156.919 179.8C156.235 180.017 155.652 180.317 155.169 180.7L153.769 177.975C154.502 177.458 155.385 177.058 156.419 176.775C157.452 176.492 158.502 176.35 159.569 176.35C161.619 176.35 163.21 176.833 164.344 177.8C165.477 178.767 166.044 180.275 166.044 182.325V190H162.394ZM158.294 190.2C157.244 190.2 156.344 190.025 155.594 189.675C154.844 189.308 154.269 188.817 153.869 188.2C153.469 187.583 153.269 186.892 153.269 186.125C153.269 185.325 153.46 184.625 153.844 184.025C154.244 183.425 154.869 182.958 155.719 182.625C156.569 182.275 157.677 182.1 159.044 182.1H162.619V184.375H159.469C158.552 184.375 157.919 184.525 157.569 184.825C157.235 185.125 157.069 185.5 157.069 185.95C157.069 186.45 157.26 186.85 157.644 187.15C158.044 187.433 158.585 187.575 159.269 187.575C159.919 187.575 160.502 187.425 161.019 187.125C161.535 186.808 161.91 186.35 162.144 185.75L162.744 187.55C162.46 188.417 161.944 189.075 161.194 189.525C160.444 189.975 159.477 190.2 158.294 190.2ZM169.573 190V176.55H173.298V180.35L172.773 179.25C173.173 178.3 173.815 177.583 174.698 177.1C175.582 176.6 176.657 176.35 177.923 176.35V179.95C177.757 179.933 177.607 179.925 177.473 179.925C177.34 179.908 177.198 179.9 177.048 179.9C175.982 179.9 175.115 180.208 174.448 180.825C173.798 181.425 173.473 182.367 173.473 183.65V190H169.573ZM186.645 190.2C185.195 190.2 183.903 189.908 182.77 189.325C181.636 188.725 180.745 187.9 180.095 186.85C179.461 185.8 179.145 184.608 179.145 183.275C179.145 181.925 179.461 180.733 180.095 179.7C180.745 178.65 181.636 177.833 182.77 177.25C183.903 176.65 185.195 176.35 186.645 176.35C188.061 176.35 189.295 176.65 190.345 177.25C191.395 177.833 192.17 178.675 192.67 179.775L189.645 181.4C189.295 180.767 188.853 180.3 188.32 180C187.803 179.7 187.236 179.55 186.62 179.55C185.953 179.55 185.353 179.7 184.82 180C184.286 180.3 183.861 180.725 183.545 181.275C183.245 181.825 183.095 182.492 183.095 183.275C183.095 184.058 183.245 184.725 183.545 185.275C183.861 185.825 184.286 186.25 184.82 186.55C185.353 186.85 185.953 187 186.62 187C187.236 187 187.803 186.858 188.32 186.575C188.853 186.275 189.295 185.8 189.645 185.15L192.67 186.8C192.17 187.883 191.395 188.725 190.345 189.325C189.295 189.908 188.061 190.2 186.645 190.2ZM203.017 176.35C204.084 176.35 205.034 176.567 205.867 177C206.717 177.417 207.384 178.067 207.867 178.95C208.35 179.817 208.592 180.933 208.592 182.3V190H204.692V182.9C204.692 181.817 204.45 181.017 203.967 180.5C203.5 179.983 202.834 179.725 201.967 179.725C201.35 179.725 200.792 179.858 200.292 180.125C199.809 180.375 199.425 180.767 199.142 181.3C198.875 181.833 198.742 182.517 198.742 183.35V190H194.842V171.45H198.742V180.275L197.867 179.15C198.35 178.25 199.042 177.558 199.942 177.075C200.842 176.592 201.867 176.35 203.017 176.35ZM218.232 190V187.375L224.982 181C225.516 180.517 225.907 180.083 226.157 179.7C226.407 179.317 226.574 178.967 226.657 178.65C226.757 178.333 226.807 178.042 226.807 177.775C226.807 177.075 226.566 176.542 226.082 176.175C225.616 175.792 224.924 175.6 224.007 175.6C223.274 175.6 222.591 175.742 221.957 176.025C221.341 176.308 220.816 176.75 220.382 177.35L217.432 175.45C218.099 174.45 219.032 173.658 220.232 173.075C221.432 172.492 222.816 172.2 224.382 172.2C225.682 172.2 226.816 172.417 227.782 172.85C228.766 173.267 229.524 173.858 230.057 174.625C230.607 175.392 230.882 176.308 230.882 177.375C230.882 177.942 230.807 178.508 230.657 179.075C230.524 179.625 230.241 180.208 229.807 180.825C229.391 181.442 228.774 182.133 227.957 182.9L222.357 188.175L221.582 186.7H231.457V190H218.232ZM235.828 190V174L237.578 175.75H232.328V172.5H239.878V190H235.828ZM248.268 190.2C247.118 190.2 246.01 190.067 244.943 189.8C243.893 189.517 243.06 189.167 242.443 188.75L243.743 185.95C244.36 186.333 245.085 186.65 245.918 186.9C246.768 187.133 247.602 187.25 248.418 187.25C249.318 187.25 249.952 187.142 250.318 186.925C250.702 186.708 250.893 186.408 250.893 186.025C250.893 185.708 250.743 185.475 250.443 185.325C250.16 185.158 249.777 185.033 249.293 184.95C248.81 184.867 248.277 184.783 247.693 184.7C247.127 184.617 246.552 184.508 245.968 184.375C245.385 184.225 244.852 184.008 244.368 183.725C243.885 183.442 243.493 183.058 243.193 182.575C242.91 182.092 242.768 181.467 242.768 180.7C242.768 179.85 243.01 179.1 243.493 178.45C243.993 177.8 244.71 177.292 245.643 176.925C246.577 176.542 247.693 176.35 248.993 176.35C249.91 176.35 250.843 176.45 251.793 176.65C252.743 176.85 253.535 177.142 254.168 177.525L252.868 180.3C252.218 179.917 251.56 179.658 250.893 179.525C250.243 179.375 249.61 179.3 248.993 179.3C248.127 179.3 247.493 179.417 247.093 179.65C246.693 179.883 246.493 180.183 246.493 180.55C246.493 180.883 246.635 181.133 246.918 181.3C247.218 181.467 247.61 181.6 248.093 181.7C248.577 181.8 249.102 181.892 249.668 181.975C250.252 182.042 250.835 182.15 251.418 182.3C252.002 182.45 252.527 182.667 252.993 182.95C253.477 183.217 253.868 183.592 254.168 184.075C254.468 184.542 254.618 185.158 254.618 185.925C254.618 186.758 254.368 187.5 253.868 188.15C253.368 188.783 252.643 189.283 251.693 189.65C250.76 190.017 249.618 190.2 248.268 190.2ZM262.525 190.2C260.941 190.2 259.708 189.8 258.825 189C257.941 188.183 257.5 186.975 257.5 185.375V173.575H261.4V185.325C261.4 185.892 261.55 186.333 261.85 186.65C262.15 186.95 262.558 187.1 263.075 187.1C263.691 187.1 264.216 186.933 264.65 186.6L265.7 189.35C265.3 189.633 264.816 189.85 264.25 190C263.7 190.133 263.125 190.2 262.525 190.2ZM255.425 179.85V176.85H264.75V179.85H255.425ZM273.994 190V187.375L280.744 181C281.277 180.517 281.669 180.083 281.919 179.7C282.169 179.317 282.336 178.967 282.419 178.65C282.519 178.333 282.569 178.042 282.569 177.775C282.569 177.075 282.327 176.542 281.844 176.175C281.377 175.792 280.686 175.6 279.769 175.6C279.036 175.6 278.352 175.742 277.719 176.025C277.102 176.308 276.577 176.75 276.144 177.35L273.194 175.45C273.861 174.45 274.794 173.658 275.994 173.075C277.194 172.492 278.577 172.2 280.144 172.2C281.444 172.2 282.577 172.417 283.544 172.85C284.527 173.267 285.286 173.858 285.819 174.625C286.369 175.392 286.644 176.308 286.644 177.375C286.644 177.942 286.569 178.508 286.419 179.075C286.286 179.625 286.002 180.208 285.569 180.825C285.152 181.442 284.536 182.133 283.719 182.9L278.119 188.175L277.344 186.7H287.219V190H273.994ZM296.39 190.3C294.957 190.3 293.673 189.95 292.54 189.25C291.407 188.533 290.515 187.5 289.865 186.15C289.215 184.8 288.89 183.167 288.89 181.25C288.89 179.333 289.215 177.7 289.865 176.35C290.515 175 291.407 173.975 292.54 173.275C293.673 172.558 294.957 172.2 296.39 172.2C297.84 172.2 299.123 172.558 300.24 173.275C301.373 173.975 302.265 175 302.915 176.35C303.565 177.7 303.89 179.333 303.89 181.25C303.89 183.167 303.565 184.8 302.915 186.15C302.265 187.5 301.373 188.533 300.24 189.25C299.123 189.95 297.84 190.3 296.39 190.3ZM296.39 186.875C297.073 186.875 297.665 186.683 298.165 186.3C298.682 185.917 299.082 185.308 299.365 184.475C299.665 183.642 299.815 182.567 299.815 181.25C299.815 179.933 299.665 178.858 299.365 178.025C299.082 177.192 298.682 176.583 298.165 176.2C297.665 175.817 297.073 175.625 296.39 175.625C295.723 175.625 295.132 175.817 294.615 176.2C294.115 176.583 293.715 177.192 293.415 178.025C293.132 178.858 292.99 179.933 292.99 181.25C292.99 182.567 293.132 183.642 293.415 184.475C293.715 185.308 294.115 185.917 294.615 186.3C295.132 186.683 295.723 186.875 296.39 186.875ZM305.61 190V187.375L312.36 181C312.893 180.517 313.285 180.083 313.535 179.7C313.785 179.317 313.952 178.967 314.035 178.65C314.135 178.333 314.185 178.042 314.185 177.775C314.185 177.075 313.943 176.542 313.46 176.175C312.993 175.792 312.302 175.6 311.385 175.6C310.652 175.6 309.968 175.742 309.335 176.025C308.718 176.308 308.193 176.75 307.76 177.35L304.81 175.45C305.477 174.45 306.41 173.658 307.61 173.075C308.81 172.492 310.193 172.2 311.76 172.2C313.06 172.2 314.193 172.417 315.16 172.85C316.143 173.267 316.902 173.858 317.435 174.625C317.985 175.392 318.26 176.308 318.26 177.375C318.26 177.942 318.185 178.508 318.035 179.075C317.902 179.625 317.618 180.208 317.185 180.825C316.768 181.442 316.152 182.133 315.335 182.9L309.735 188.175L308.96 186.7H318.835V190H305.61ZM320.038 186.325V183.6L328.288 172.5H332.538L324.463 183.6L322.488 183.025H336.263V186.325H320.038ZM329.463 190V186.325L329.588 183.025V179.75H333.413V190H329.463Z" fill="#7855FA"/>
<path fill-rule="evenodd" clip-rule="evenodd" d="M37.8634 0.768527C38.5754 0.93984 39.2715 1.16046 39.9317 1.46615C44.1011 3.39742 47.2355 6.37073 48.8358 10.769C49.0752 11.4263 49.3478 11.8663 50.1562 11.87C50.6236 11.873 51.0961 12.0125 51.56 12.1494C51.6535 12.177 51.7467 12.2046 51.8394 12.2308C55.3385 13.2195 58.1819 15.1599 60.4562 18.0044C61.7121 19.5753 62.5701 21.3067 63.1465 23.141L58.3945 23.141C57.9925 22.3099 57.4804 21.4875 56.8559 20.6758C54.2317 17.2643 50.694 15.8172 46.4546 16.1744C45.5835 16.248 45.4399 15.9037 45.3736 15.3054C45.1765 13.4975 44.6204 11.8332 43.6572 10.2775C42.2255 7.96392 40.2859 6.36166 37.8634 5.45616L37.8634 0.768527Z" fill="#7855FA"/>
<path fill-rule="evenodd" clip-rule="evenodd" d="M30.9709 0.413015C28.3588 0.919435 25.927 1.85644 23.7971 3.47966C22.3422 4.58798 21.0936 5.90433 20.0752 7.42505C19.718 7.95895 19.3128 8.17988 18.6498 8.17988C14.2853 8.18725 9.96858 11.1661 8.52845 15.3342C8.12503 16.502 7.31809 17.0163 6.43851 17.5768L6.42719 17.584C2.93922 19.8062 0.928201 23.0115 0.0865905 27.0047C0.0698631 27.0832 0.0486381 27.1608 0.0273177 27.2387C0.0181243 27.2723 0.00891563 27.306 3.88228e-05 27.3398L3.83975e-05 32.2039C0.66301 35.4717 2.19337 38.272 4.66479 40.5126C7.22644 42.8341 10.2411 44.2278 13.7346 44.2407C25.2096 44.2831 36.6864 44.2775 48.1614 44.2444C51.8869 44.2352 55.1557 42.8581 57.9899 40.4886C60.2661 38.5868 61.9954 36.2487 62.9585 33.4319C63.6772 31.3291 64.1639 29.1403 63.9487 26.9274L59.468 26.9274C59.6831 29.2879 59.083 31.6944 57.7174 34.1075C56.0268 37.0956 53.3436 38.9716 49.8943 39.5976C48.5831 39.8351 47.2608 39.9639 45.9257 39.9621C42.3202 39.9554 38.7156 39.9565 35.1107 39.9576C33.7588 39.958 32.4069 39.9584 31.0548 39.9584C29.5001 39.9579 27.9457 39.9596 26.3913 39.9613C22.7275 39.9654 19.0644 39.9695 15.4013 39.9437C13.7549 39.9326 12.0846 39.7853 10.5616 39.1078C7.16015 37.5926 5.07362 35.0023 4.4217 31.3073C3.62797 26.8059 6.23751 21.7669 11.1343 20.1191C11.9391 19.8485 12.1951 19.4711 12.2798 18.6058C12.5928 15.4042 15.1158 12.8286 18.4325 12.6445C19.3938 12.5911 20.3349 12.6629 21.2318 13.0789C21.7842 13.3348 22.2133 13.2097 22.438 12.5726C23.2133 10.3707 24.4822 8.49654 26.3772 7.11759C28.0456 5.90433 29.8467 5.0151 31.9774 4.78313C32.4361 4.73295 32.8914 4.7012 33.3434 4.69128L33.3434 1.54223e-06C31.7701 0.0409827 31.0204 0.389188 30.9709 0.413015Z" fill="white"/>
<path fill-rule="evenodd" clip-rule="evenodd" d="M34.7021 26.3526C34.7684 26.3526 34.8282 26.3813 34.8717 26.4276L39.2332 30.4957C39.2906 30.5427 39.3277 30.6169 39.3277 30.7004C39.3277 30.8423 39.2203 30.9576 39.0878 30.9576H36.1167C36.0513 30.9576 35.9918 30.9294 35.9485 30.8837L33.0623 28.192C33.0097 28.1445 32.9766 28.074 32.9766 27.9948C32.9766 27.9284 33.0002 27.8678 33.0388 27.8221L34.5243 26.4367C34.5682 26.3851 34.6316 26.3526 34.7021 26.3526ZM39.0878 19.9653C39.2203 19.9653 39.3277 20.0806 39.3277 20.2226C39.3277 20.306 39.2906 20.3801 39.2332 20.4271L34.8717 24.4952C34.8282 24.5416 34.7684 24.5703 34.7021 24.5703C34.6316 24.5703 34.5682 24.5379 34.5243 24.4862L33.0388 23.1009C33.0002 23.0552 32.9766 22.9946 32.9766 22.9281C32.9766 22.8491 33.0097 22.7784 33.0623 22.731L35.9485 20.0391C35.9918 19.9935 36.0513 19.9653 36.1167 19.9653H39.0878Z" fill="white"/>
<path fill-rule="evenodd" clip-rule="evenodd" d="M28.036 30.89C27.9935 30.9318 27.9368 30.9576 27.8745 30.9576H24.9109C24.7789 30.9576 24.6719 30.8423 24.6719 30.7002C24.6719 30.6293 24.6986 30.5651 24.7418 30.5187L29.9352 25.658C29.9873 25.6109 30.0203 25.5402 30.0203 25.4612C30.0203 25.3865 29.9907 25.3194 29.9436 25.2725L24.7565 20.4187C24.7047 20.3716 24.6719 20.3013 24.6719 20.2226C24.6719 20.0806 24.7789 19.9653 24.9109 19.9653H27.8745C27.9371 19.9653 27.994 19.991 28.0365 20.0332L33.6275 25.2671C33.6781 25.3142 33.71 25.3835 33.71 25.4612C33.71 25.539 33.678 25.6089 33.6271 25.6562L28.036 30.89Z" fill="white"/>
</svg>
