<svg width="252" height="156" viewBox="0 0 252 156" fill="none" xmlns="http://www.w3.org/2000/svg">
<g clip-path="url(#clip0_88_89)">
<path d="M48.6449 6.97526H43.1862C43.1811 6.97526 43.178 6.97913 43.178 6.983V17.037C43.178 17.1434 43.0861 17.2304 42.9737 17.2304H40.3368C40.2244 17.2304 40.1325 17.1434 40.1325 17.037V6.983C40.1325 6.97816 40.1284 6.97526 40.1243 6.97526H34.6809C34.5686 6.97526 34.4766 6.88823 34.4766 6.78186V4.53066C34.4766 4.42429 34.5686 4.33726 34.6809 4.33726H48.6449C48.7573 4.33726 48.8492 4.42429 48.8492 4.53066V6.78186C48.8492 6.88823 48.7583 6.97526 48.6449 6.97526ZM87.4267 4.33726H84.7898C84.6775 4.33726 84.5855 4.42429 84.5855 4.53066V17.038C84.5855 17.1443 84.6775 17.2314 84.7898 17.2314H87.4267C87.5391 17.2314 87.631 17.1443 87.631 17.038V4.53066C87.631 4.42332 87.5391 4.33726 87.4267 4.33726ZM108.735 16.9181C108.795 16.9664 108.816 17.0457 108.788 17.1153C108.761 17.185 108.69 17.2314 108.612 17.2314H104.551C104.506 17.2314 104.462 17.2159 104.427 17.1879L99.9654 13.5335C99.9246 13.4997 99.9001 13.4504 99.9001 13.3991C99.9001 13.3469 99.9235 13.2985 99.9654 13.2647L101.995 11.6014C102.066 11.5434 102.171 11.5434 102.242 11.6014L108.735 16.9181ZM101.997 9.96719C102.033 9.9962 102.077 10.0107 102.121 10.0107C102.165 10.0107 102.209 9.9962 102.245 9.96719L108.736 4.6496C108.796 4.60125 108.817 4.52195 108.789 4.45233C108.762 4.3827 108.691 4.33629 108.613 4.33629H104.552C104.507 4.33629 104.463 4.35176 104.428 4.3798L99.9665 8.03414C99.9256 8.06798 99.9011 8.1173 99.9011 8.16855C99.9011 8.22077 99.9246 8.26912 99.9665 8.30297L101.997 9.96719ZM101.147 10.7843C101.147 10.7321 101.124 10.6837 101.082 10.6499L93.4289 4.38077C93.3952 4.35273 93.3513 4.33726 93.3053 4.33726H89.2442C89.1656 4.33726 89.0951 4.38367 89.0675 4.4533C89.0399 4.52292 89.0614 4.60125 89.1206 4.65057L96.6022 10.7785C96.6062 10.7814 96.6062 10.7872 96.6022 10.7911L89.1206 16.919C89.0614 16.9674 89.0399 17.0467 89.0675 17.1163C89.0951 17.1859 89.1656 17.2323 89.2442 17.2323H93.3053C93.3503 17.2323 93.3942 17.2169 93.4289 17.1888L101.082 10.9197C101.124 10.8849 101.147 10.8356 101.147 10.7843ZM3.04554 8.52828C3.04554 8.52151 3.05371 8.51764 3.05882 8.52151C3.45931 8.86093 12.5735 16.5854 13.0128 16.9123C13.401 17.2004 13.8495 17.3793 14.4339 17.2981C15.1899 17.2111 16.0215 16.5999 16.0215 15.571V4.53066C16.0215 4.42429 15.9296 4.33726 15.8172 4.33726H13.1803C13.0679 4.33726 12.976 4.42429 12.976 4.53066V13.0316C12.976 13.0384 12.9678 13.0423 12.9627 13.0384C12.5622 12.699 3.44807 4.97452 3.00876 4.64767C2.62053 4.3595 2.17203 4.1806 1.58764 4.26183C0.831623 4.34886 0 4.96098 0 5.98891V17.037C0 17.1434 0.0919485 17.2304 0.20433 17.2304H2.84121C2.95359 17.2304 3.04554 17.1434 3.04554 17.037V8.52828ZM69.979 8.52828C69.979 8.52151 69.9871 8.51764 69.9923 8.52151C70.3927 8.86093 79.5069 16.5854 79.9462 16.9123C80.3344 17.2004 80.7829 17.3793 81.3673 17.2981C82.1233 17.2111 82.955 16.5999 82.955 15.571V4.53066C82.955 4.42429 82.863 4.33726 82.7506 4.33726H80.1137C80.0014 4.33726 79.9094 4.42429 79.9094 4.53066V13.0316C79.9094 13.0384 79.9012 13.0423 79.8961 13.0384C79.4957 12.699 70.3815 4.97452 69.9422 4.64767C69.554 4.3595 69.1055 4.1806 68.5211 4.26183C67.7651 4.34886 66.9334 4.96098 66.9334 5.98891V17.037C66.9334 17.1434 67.0254 17.2304 67.1378 17.2304H69.7746C69.887 17.2304 69.979 17.1434 69.979 17.037V8.52828ZM26.1256 17.4867C27.7685 17.4828 29.5993 17.3948 30.7231 16.7672C32.2188 15.9317 32.9462 14.7713 32.9462 13.2212L32.9472 4.53066C32.9472 4.42429 32.8553 4.33726 32.7429 4.33726H30.0805C29.9681 4.33726 29.8761 4.42429 29.8761 4.53066L29.8751 13.052C29.8496 14.7481 27.6295 14.7655 26.0276 14.7655H24.5717C22.9698 14.7655 20.7507 14.7491 20.7242 13.052L20.7232 4.53066C20.7232 4.42429 20.6312 4.33726 20.5188 4.33726H17.8564C17.744 4.33726 17.6521 4.42429 17.6521 4.53066L17.6531 13.2212C17.6531 14.7713 18.3805 15.9317 19.8762 16.7672C21 17.3948 22.8308 17.4838 24.4736 17.4867H26.1256ZM65.6778 16.9403C65.7197 16.9964 65.7248 17.0699 65.6921 17.1318C65.6594 17.1927 65.593 17.2314 65.5205 17.2314H62.2645C62.1991 17.2314 62.1378 17.2014 62.1 17.1501L60.2008 14.5798C60.1987 14.5779 60.1967 14.576 60.1936 14.576H50.4307C50.4276 14.576 50.4256 14.5769 50.4236 14.5798L48.5172 17.153C48.4814 17.2024 48.4221 17.2314 48.3598 17.2314H45.1038C45.0313 17.2314 44.9649 17.1927 44.9322 17.1318C44.8995 17.0709 44.9046 16.9964 44.9465 16.9403C44.9465 16.9403 53.227 5.75296 53.7378 5.08475C54.2486 4.41655 54.7625 4.24249 55.3162 4.24249C55.9262 4.24249 56.3972 4.45813 56.8508 5.0335L65.6778 16.9403ZM58.2177 11.9254L55.3203 8.04284C55.3173 8.038 55.3101 8.038 55.306 8.04284L52.4076 11.9254C52.4035 11.9312 52.4076 11.938 52.4148 11.938H58.2106C58.2177 11.938 58.2218 11.9302 58.2177 11.9254Z" fill="white"/>
</g>
<rect x="124.167" width="1.24167" height="19.0907" fill="white" fill-opacity="0.5"/>
<path fill-rule="evenodd" clip-rule="evenodd" d="M159.47 1.2694C159.783 1.34487 160.09 1.44206 160.381 1.57674C162.217 2.42742 163.598 3.73709 164.303 5.67444C164.408 5.96395 164.528 6.15776 164.885 6.15939C165.09 6.16074 165.299 6.22217 165.503 6.28248C165.544 6.29464 165.585 6.30676 165.626 6.31833C167.167 6.75381 168.42 7.60855 169.421 8.86146C169.975 9.5534 170.353 10.316 170.606 11.124L168.513 11.124C168.336 10.7579 168.111 10.3957 167.836 10.0381C166.68 8.53545 165.121 7.89805 163.254 8.05538C162.87 8.08781 162.807 7.93617 162.778 7.67261C162.691 6.87626 162.446 6.14317 162.022 5.45792C161.391 4.43879 160.537 3.73301 159.47 3.33417L159.47 1.2694Z" fill="#7855FA"/>
<path fill-rule="evenodd" clip-rule="evenodd" d="M156.434 1.11227C155.283 1.33534 154.212 1.74807 153.274 2.46306C152.633 2.95125 152.083 3.53107 151.635 4.20092C151.477 4.43609 151.299 4.5334 151.007 4.5334C149.084 4.53665 147.183 5.84876 146.548 7.68473C146.371 8.1991 146.015 8.42562 145.628 8.67253L145.623 8.67571C144.087 9.65452 143.201 11.0664 142.83 12.8253C142.823 12.8599 142.813 12.894 142.804 12.9284C142.8 12.9432 142.796 12.958 142.792 12.9729L142.792 15.1154C143.084 16.5549 143.758 17.7883 144.847 18.7752C145.975 19.7978 147.303 20.4117 148.842 20.4174C153.896 20.436 158.951 20.4336 164.006 20.419C165.647 20.4149 167.087 19.8084 168.335 18.7647C169.338 17.927 170.099 16.8971 170.524 15.6563C170.84 14.7302 171.055 13.7661 170.96 12.7914L168.986 12.7914C169.081 13.8311 168.817 14.8911 168.215 15.9539C167.47 17.2701 166.289 18.0965 164.769 18.3722C164.192 18.4768 163.609 18.5336 163.021 18.5327C161.433 18.5298 159.845 18.5303 158.257 18.5308C157.662 18.5309 157.066 18.5311 156.471 18.5311C155.786 18.5309 155.101 18.5316 154.417 18.5324C152.803 18.5342 151.189 18.536 149.576 18.5246C148.851 18.5198 148.115 18.4549 147.444 18.1565C145.946 17.4891 145.027 16.3481 144.74 14.7205C144.39 12.7377 145.539 10.5182 147.696 9.79238C148.051 9.67317 148.164 9.50693 148.201 9.12578C148.339 7.71555 149.45 6.58104 150.911 6.49994C151.334 6.47643 151.749 6.50805 152.144 6.69133C152.387 6.80405 152.576 6.7489 152.675 6.46832C153.017 5.49843 153.576 4.67288 154.41 4.06549C155.145 3.53107 155.939 3.13939 156.877 3.03721C157.079 3.01511 157.28 3.00112 157.479 2.99675L157.479 0.930351C156.786 0.948409 156.456 1.1018 156.434 1.11227Z" fill="white"/>
<path fill-rule="evenodd" clip-rule="evenodd" d="M158.078 12.5386C158.108 12.5386 158.134 12.5512 158.153 12.5716L160.074 14.3635C160.1 14.3842 160.116 14.4169 160.116 14.4537C160.116 14.5162 160.069 14.567 160.01 14.567H158.702C158.673 14.567 158.646 14.5546 158.627 14.5344L157.356 13.3488C157.333 13.3279 157.318 13.2968 157.318 13.2619C157.318 13.2327 157.329 13.206 157.346 13.1858L158 12.5756C158.019 12.5529 158.047 12.5386 158.078 12.5386ZM160.01 9.7251C160.069 9.7251 160.116 9.77589 160.116 9.83842C160.116 9.87518 160.1 9.90779 160.074 9.9285L158.153 11.7204C158.134 11.7409 158.108 11.7535 158.078 11.7535C158.047 11.7535 158.019 11.7392 158 11.7165L157.346 11.1063C157.329 11.0861 157.318 11.0594 157.318 11.0301C157.318 10.9953 157.333 10.9642 157.356 10.9433L158.627 9.7576C158.646 9.73752 158.673 9.7251 158.702 9.7251H160.01Z" fill="white"/>
<path fill-rule="evenodd" clip-rule="evenodd" d="M155.141 14.5372C155.122 14.5556 155.097 14.567 155.07 14.567H153.764C153.706 14.567 153.659 14.5162 153.659 14.4536C153.659 14.4224 153.671 14.3941 153.69 14.3736L155.978 12.2326C156.001 12.2118 156.015 12.1807 156.015 12.1459C156.015 12.113 156.002 12.0835 155.981 12.0628L153.696 9.92482C153.674 9.90405 153.659 9.87311 153.659 9.83842C153.659 9.77589 153.706 9.7251 153.764 9.7251H155.07C155.097 9.7251 155.123 9.73643 155.141 9.75501L157.604 12.0604C157.626 12.0812 157.64 12.1117 157.64 12.1459C157.64 12.1802 157.626 12.211 157.604 12.2318L155.141 14.5372Z" fill="white"/>
<path d="M248.387 21.9999C247.813 21.9999 247.258 21.9282 246.722 21.7846C246.193 21.6487 245.751 21.441 245.396 21.1615L246.098 19.8925C246.355 20.104 246.68 20.2702 247.073 20.391C247.473 20.5194 247.866 20.5836 248.251 20.5836C248.878 20.5836 249.331 20.4439 249.611 20.1644C249.898 19.8849 250.041 19.4695 250.041 18.9181V18.0003L250.155 16.4708L250.132 14.9299V13.6155H251.809V18.6915C251.809 19.8245 251.514 20.6592 250.925 21.1955C250.336 21.7318 249.49 21.9999 248.387 21.9999ZM248.115 19.4166C247.549 19.4166 247.035 19.2958 246.574 19.0541C246.121 18.8048 245.755 18.4611 245.475 18.023C245.203 17.5774 245.067 17.0599 245.067 16.4708C245.067 15.874 245.203 15.3566 245.475 14.9185C245.755 14.4729 246.121 14.1292 246.574 13.8875C247.035 13.6458 247.549 13.5249 248.115 13.5249C248.629 13.5249 249.082 13.6307 249.475 13.8421C249.868 14.0461 250.174 14.3671 250.393 14.8052C250.612 15.2358 250.721 15.791 250.721 16.4708C250.721 17.143 250.612 17.6982 250.393 18.1363C250.174 18.5669 249.868 18.8879 249.475 19.0994C249.082 19.3109 248.629 19.4166 248.115 19.4166ZM248.466 17.9664C248.776 17.9664 249.052 17.9059 249.294 17.7851C249.535 17.6567 249.724 17.4792 249.86 17.2526C249.996 17.0259 250.064 16.7654 250.064 16.4708C250.064 16.1686 249.996 15.908 249.86 15.689C249.724 15.4624 249.535 15.2886 249.294 15.1678C249.052 15.0394 248.776 14.9752 248.466 14.9752C248.157 14.9752 247.881 15.0394 247.639 15.1678C247.398 15.2886 247.205 15.4624 247.062 15.689C246.926 15.908 246.858 16.1686 246.858 16.4708C246.858 16.7654 246.926 17.0259 247.062 17.2526C247.205 17.4792 247.398 17.6567 247.639 17.7851C247.881 17.9059 248.157 17.9664 248.466 17.9664Z" fill="white"/>
<path d="M241.348 13.5249C241.831 13.5249 242.262 13.6231 242.639 13.8195C243.024 14.0083 243.327 14.3029 243.546 14.7032C243.765 15.096 243.874 15.6021 243.874 16.2215V19.7112H242.107V16.4934C242.107 16.0024 241.997 15.6399 241.778 15.4057C241.567 15.1716 241.264 15.0545 240.872 15.0545C240.592 15.0545 240.339 15.1149 240.113 15.2358C239.894 15.3491 239.72 15.5266 239.591 15.7683C239.471 16.01 239.41 16.3197 239.41 16.6974V19.7112H237.643V13.6155H239.331V15.3037L239.014 14.7939C239.233 14.386 239.546 14.0725 239.954 13.8535C240.362 13.6344 240.826 13.5249 241.348 13.5249Z" fill="white"/>
<path d="M234.234 19.7113V13.6157H236.001V19.7113H234.234ZM235.118 12.7659C234.793 12.7659 234.528 12.6715 234.324 12.4826C234.121 12.2938 234.019 12.0596 234.019 11.7802C234.019 11.5007 234.121 11.2665 234.324 11.0777C234.528 10.8889 234.793 10.7944 235.118 10.7944C235.442 10.7944 235.707 10.8851 235.911 11.0664C236.115 11.2401 236.217 11.4667 236.217 11.7462C236.217 12.0408 236.115 12.2862 235.911 12.4826C235.714 12.6715 235.45 12.7659 235.118 12.7659Z" fill="white"/>
<path d="M229.388 19.7112V13.6155H231.076V15.3377L230.838 14.8392C231.019 14.4087 231.31 14.0839 231.71 13.8648C232.111 13.6382 232.598 13.5249 233.172 13.5249V15.1565C233.096 15.1489 233.028 15.1451 232.968 15.1451C232.908 15.1376 232.843 15.1338 232.775 15.1338C232.292 15.1338 231.899 15.2735 231.597 15.553C231.303 15.8249 231.155 16.2517 231.155 16.8333V19.7112H229.388Z" fill="white"/>
<path d="M225.265 19.8019C224.571 19.8019 223.959 19.6659 223.43 19.394C222.909 19.122 222.505 18.7519 222.218 18.2836C221.931 17.8077 221.787 17.2677 221.787 16.6634C221.787 16.0515 221.927 15.5115 222.206 15.0432C222.493 14.5673 222.882 14.1972 223.373 13.9328C223.864 13.6609 224.419 13.5249 225.039 13.5249C225.636 13.5249 226.172 13.6533 226.648 13.9101C227.131 14.1594 227.513 14.522 227.792 14.9978C228.072 15.4661 228.211 16.0289 228.211 16.686C228.211 16.754 228.208 16.8333 228.2 16.924C228.192 17.0071 228.185 17.0864 228.177 17.1619H223.226V16.1309H227.248L226.568 16.4368C226.568 16.1195 226.504 15.8438 226.376 15.6097C226.247 15.3755 226.07 15.1942 225.843 15.0658C225.617 14.9299 225.352 14.8619 225.05 14.8619C224.748 14.8619 224.48 14.9299 224.246 15.0658C224.019 15.1942 223.842 15.3793 223.713 15.621C223.585 15.8552 223.521 16.1346 223.521 16.4594V16.7314C223.521 17.0637 223.592 17.3583 223.736 17.6151C223.887 17.8644 224.095 18.057 224.359 18.193C224.631 18.3214 224.948 18.3856 225.311 18.3856C225.636 18.3856 225.919 18.3365 226.161 18.2383C226.41 18.1401 226.636 17.9928 226.84 17.7964L227.781 18.8161C227.501 19.1334 227.15 19.3789 226.727 19.5526C226.304 19.7188 225.817 19.8019 225.265 19.8019Z" fill="white"/>
<path d="M218.117 19.8019C217.422 19.8019 216.81 19.6659 216.282 19.394C215.76 19.122 215.356 18.7519 215.069 18.2836C214.782 17.8077 214.639 17.2677 214.639 16.6634C214.639 16.0515 214.778 15.5115 215.058 15.0432C215.345 14.5673 215.734 14.1972 216.225 13.9328C216.716 13.6609 217.271 13.5249 217.89 13.5249C218.487 13.5249 219.023 13.6533 219.499 13.9101C219.983 14.1594 220.364 14.522 220.644 14.9978C220.923 15.4661 221.063 16.0289 221.063 16.686C221.063 16.754 221.059 16.8333 221.052 16.924C221.044 17.0071 221.036 17.0864 221.029 17.1619H216.078V16.1309H220.1L219.42 16.4368C219.42 16.1195 219.356 15.8438 219.227 15.6097C219.099 15.3755 218.922 15.1942 218.695 15.0658C218.468 14.9299 218.204 14.8619 217.902 14.8619C217.6 14.8619 217.331 14.9299 217.097 15.0658C216.871 15.1942 216.693 15.3793 216.565 15.621C216.436 15.8552 216.372 16.1346 216.372 16.4594V16.7314C216.372 17.0637 216.444 17.3583 216.587 17.6151C216.739 17.8644 216.946 18.057 217.211 18.193C217.483 18.3214 217.8 18.3856 218.162 18.3856C218.487 18.3856 218.77 18.3365 219.012 18.2383C219.261 18.1401 219.488 17.9928 219.692 17.7964L220.632 18.8161C220.353 19.1334 220.002 19.3789 219.579 19.5526C219.156 19.7188 218.668 19.8019 218.117 19.8019Z" fill="white"/>
<path d="M210.919 13.5249C211.402 13.5249 211.833 13.6231 212.211 13.8195C212.596 14.0083 212.898 14.3029 213.117 14.7032C213.336 15.096 213.445 15.6021 213.445 16.2215V19.7112H211.678V16.4934C211.678 16.0024 211.568 15.6399 211.349 15.4057C211.138 15.1716 210.836 15.0545 210.443 15.0545C210.164 15.0545 209.91 15.1149 209.684 15.2358C209.465 15.3491 209.291 15.5266 209.163 15.7683C209.042 16.01 208.981 16.3197 208.981 16.6974V19.7112H207.214V13.6155H208.902V15.3037L208.585 14.7939C208.804 14.386 209.117 14.0725 209.525 13.8535C209.933 13.6344 210.398 13.5249 210.919 13.5249Z" fill="white"/>
<path d="M203.806 19.7113V13.6157H205.574V19.7113H203.806ZM204.69 12.7659C204.365 12.7659 204.101 12.6715 203.897 12.4826C203.693 12.2938 203.591 12.0596 203.591 11.7802C203.591 11.5007 203.693 11.2665 203.897 11.0777C204.101 10.8889 204.365 10.7944 204.69 10.7944C205.015 10.7944 205.279 10.8851 205.483 11.0664C205.687 11.2401 205.789 11.4667 205.789 11.7462C205.789 12.0408 205.687 12.2862 205.483 12.4826C205.287 12.6715 205.022 12.7659 204.69 12.7659Z" fill="white"/>
<path d="M198.74 21.9999C198.166 21.9999 197.61 21.9282 197.074 21.7846C196.545 21.6487 196.104 21.441 195.748 21.1615L196.451 19.8925C196.708 20.104 197.033 20.2702 197.425 20.391C197.826 20.5194 198.218 20.5836 198.604 20.5836C199.231 20.5836 199.684 20.4439 199.963 20.1644C200.25 19.8849 200.394 19.4695 200.394 18.9181V18.0003L200.507 16.4708L200.485 14.9299V13.6155H202.161V18.6915C202.161 19.8245 201.867 20.6592 201.278 21.1955C200.688 21.7318 199.842 21.9999 198.74 21.9999ZM198.468 19.4166C197.901 19.4166 197.388 19.2958 196.927 19.0541C196.474 18.8048 196.107 18.4611 195.828 18.023C195.556 17.5774 195.42 17.0599 195.42 16.4708C195.42 15.874 195.556 15.3566 195.828 14.9185C196.107 14.4729 196.474 14.1292 196.927 13.8875C197.388 13.6458 197.901 13.5249 198.468 13.5249C198.981 13.5249 199.435 13.6307 199.827 13.8421C200.22 14.0461 200.526 14.3671 200.745 14.8052C200.964 15.2358 201.074 15.791 201.074 16.4708C201.074 17.143 200.964 17.6982 200.745 18.1363C200.526 18.5669 200.22 18.8879 199.827 19.0994C199.435 19.3109 198.981 19.4166 198.468 19.4166ZM198.819 17.9664C199.129 17.9664 199.404 17.9059 199.646 17.7851C199.888 17.6567 200.077 17.4792 200.213 17.2526C200.349 17.0259 200.417 16.7654 200.417 16.4708C200.417 16.1686 200.349 15.908 200.213 15.689C200.077 15.4624 199.888 15.2886 199.646 15.1678C199.404 15.0394 199.129 14.9752 198.819 14.9752C198.509 14.9752 198.234 15.0394 197.992 15.1678C197.75 15.2886 197.558 15.4624 197.414 15.689C197.278 15.908 197.21 16.1686 197.21 16.4708C197.21 16.7654 197.278 17.0259 197.414 17.2526C197.558 17.4792 197.75 17.6567 197.992 17.7851C198.234 17.9059 198.509 17.9664 198.819 17.9664Z" fill="white"/>
<path d="M191.7 13.5249C192.184 13.5249 192.614 13.6231 192.992 13.8195C193.377 14.0083 193.679 14.3029 193.898 14.7032C194.117 15.096 194.227 15.6021 194.227 16.2215V19.7112H192.459V16.4934C192.459 16.0024 192.35 15.6399 192.131 15.4057C191.919 15.1716 191.617 15.0545 191.224 15.0545C190.945 15.0545 190.692 15.1149 190.465 15.2358C190.246 15.3491 190.072 15.5266 189.944 15.7683C189.823 16.01 189.763 16.3197 189.763 16.6974V19.7112H187.995V13.6155H189.683V15.3037L189.366 14.7939C189.585 14.386 189.899 14.0725 190.306 13.8535C190.714 13.6344 191.179 13.5249 191.7 13.5249Z" fill="white"/>
<path d="M182.207 14.9754H186.025V16.403H182.207V14.9754ZM182.343 18.2385H186.66V19.7114H180.519V11.7803H186.512V13.2532H182.343V18.2385Z" fill="white"/>
<path d="M203.656 8.3165C203.134 8.3165 202.632 8.25608 202.149 8.13522C201.673 8.00681 201.295 7.84819 201.016 7.65935L201.605 6.39036C201.884 6.56409 202.213 6.70761 202.591 6.82091C202.976 6.92666 203.353 6.97954 203.724 6.97954C204.131 6.97954 204.418 6.93044 204.585 6.83224C204.758 6.73405 204.845 6.59808 204.845 6.42435C204.845 6.28084 204.777 6.17509 204.641 6.10711C204.513 6.03157 204.339 5.97492 204.12 5.93715C203.901 5.89939 203.659 5.86162 203.395 5.82385C203.138 5.78608 202.878 5.73699 202.613 5.67656C202.349 5.60858 202.107 5.51038 201.888 5.38197C201.669 5.25356 201.491 5.07983 201.356 4.86078C201.227 4.64173 201.163 4.35847 201.163 4.01101C201.163 3.62578 201.272 3.28588 201.491 2.99129C201.718 2.6967 202.043 2.46632 202.466 2.30015C202.889 2.12642 203.395 2.03955 203.984 2.03955C204.4 2.03955 204.823 2.08487 205.253 2.17551C205.684 2.26616 206.042 2.39834 206.33 2.57207L205.74 3.82973C205.446 3.656 205.147 3.53892 204.845 3.47849C204.551 3.41051 204.264 3.37652 203.984 3.37652C203.591 3.37652 203.304 3.42939 203.123 3.53514C202.942 3.64089 202.851 3.77685 202.851 3.94303C202.851 4.0941 202.915 4.2074 203.044 4.28294C203.18 4.35847 203.357 4.4189 203.576 4.46422C203.795 4.50954 204.033 4.55109 204.29 4.58885C204.554 4.61907 204.819 4.66817 205.083 4.73615C205.348 4.80413 205.585 4.90232 205.797 5.03073C206.016 5.15159 206.194 5.32154 206.33 5.54059C206.465 5.75209 206.533 6.03157 206.533 6.37903C206.533 6.75671 206.42 7.09284 206.194 7.38742C205.967 7.67446 205.638 7.90106 205.208 8.06724C204.785 8.23341 204.267 8.3165 203.656 8.3165Z" fill="white"/>
<path d="M198.35 8.22586V7.03619L198.237 6.77559V4.64551C198.237 4.26783 198.12 3.97324 197.886 3.76175C197.659 3.55025 197.308 3.4445 196.832 3.4445C196.507 3.4445 196.186 3.49737 195.869 3.60312C195.559 3.70132 195.295 3.83728 195.076 4.01101L194.441 2.77602C194.774 2.54186 195.174 2.36057 195.642 2.23216C196.111 2.10376 196.587 2.03955 197.07 2.03955C197.999 2.03955 198.721 2.2586 199.234 2.6967C199.748 3.13481 200.005 3.8184 200.005 4.74748V8.22586H198.35ZM196.492 8.3165C196.016 8.3165 195.608 8.23719 195.269 8.07857C194.929 7.91239 194.668 7.68956 194.487 7.41008C194.305 7.1306 194.215 6.81713 194.215 6.46967C194.215 6.10711 194.302 5.78986 194.475 5.51793C194.657 5.24601 194.94 5.03451 195.325 4.88344C195.71 4.72482 196.213 4.64551 196.832 4.64551H198.452V5.67656H197.025C196.609 5.67656 196.322 5.74454 196.164 5.8805C196.013 6.01646 195.937 6.18642 195.937 6.39036C195.937 6.61697 196.024 6.79825 196.198 6.93421C196.379 7.06262 196.624 7.12683 196.934 7.12683C197.229 7.12683 197.493 7.05885 197.727 6.92288C197.961 6.77937 198.131 6.57165 198.237 6.29972L198.509 7.1155C198.381 7.50828 198.146 7.80664 197.807 8.01059C197.467 8.21453 197.029 8.3165 196.492 8.3165Z" fill="white"/>
<path d="M191.358 8.22586V7.03619L191.245 6.77559V4.64551C191.245 4.26783 191.128 3.97324 190.894 3.76175C190.667 3.55025 190.316 3.4445 189.84 3.4445C189.515 3.4445 189.194 3.49737 188.877 3.60312C188.567 3.70132 188.303 3.83728 188.084 4.01101L187.449 2.77602C187.782 2.54186 188.182 2.36057 188.65 2.23216C189.119 2.10376 189.594 2.03955 190.078 2.03955C191.007 2.03955 191.728 2.2586 192.242 2.6967C192.756 3.13481 193.012 3.8184 193.012 4.74748V8.22586H191.358ZM189.5 8.3165C189.024 8.3165 188.616 8.23719 188.276 8.07857C187.936 7.91239 187.676 7.68956 187.495 7.41008C187.313 7.1306 187.223 6.81713 187.223 6.46967C187.223 6.10711 187.31 5.78986 187.483 5.51793C187.665 5.24601 187.948 5.03451 188.333 4.88344C188.718 4.72482 189.221 4.64551 189.84 4.64551H191.46V5.67656H190.033C189.617 5.67656 189.33 5.74454 189.171 5.8805C189.02 6.01646 188.945 6.18642 188.945 6.39036C188.945 6.61697 189.032 6.79825 189.205 6.93421C189.387 7.06262 189.632 7.12683 189.942 7.12683C190.236 7.12683 190.501 7.05885 190.735 6.92288C190.969 6.77937 191.139 6.57165 191.245 6.29972L191.517 7.1155C191.388 7.50828 191.154 7.80664 190.814 8.01059C190.474 8.21453 190.036 8.3165 189.5 8.3165Z" fill="white"/>
<path d="M183.124 8.36178C182.489 8.36178 181.881 8.2787 181.299 8.11252C180.718 7.93879 180.25 7.71596 179.895 7.44403L180.518 6.06175C180.858 6.30346 181.258 6.50362 181.719 6.66225C182.187 6.81332 182.659 6.88885 183.135 6.88885C183.498 6.88885 183.788 6.85486 184.007 6.78688C184.234 6.71135 184.4 6.60937 184.506 6.48096C184.612 6.35255 184.665 6.20526 184.665 6.03908C184.665 5.82759 184.581 5.66141 184.415 5.54055C184.249 5.41214 184.03 5.31017 183.758 5.23464C183.486 5.15155 183.184 5.07601 182.852 5.00803C182.527 4.9325 182.198 4.84186 181.866 4.73611C181.541 4.63036 181.243 4.4944 180.971 4.32822C180.699 4.16204 180.476 3.94299 180.302 3.67107C180.136 3.39914 180.053 3.05168 180.053 2.62868C180.053 2.17547 180.174 1.76381 180.416 1.39369C180.665 1.01601 181.035 0.717649 181.526 0.498598C182.025 0.271994 182.648 0.158691 183.396 0.158691C183.894 0.158691 184.385 0.219119 184.869 0.339975C185.352 0.453277 185.779 0.627007 186.149 0.861166L185.582 2.25479C185.212 2.04329 184.842 1.88844 184.472 1.79025C184.102 1.6845 183.739 1.63162 183.384 1.63162C183.029 1.63162 182.738 1.67317 182.512 1.75625C182.285 1.83934 182.123 1.94887 182.025 2.08483C181.926 2.21324 181.877 2.36431 181.877 2.53804C181.877 2.74199 181.96 2.90816 182.127 3.03657C182.293 3.15743 182.512 3.25562 182.784 3.33116C183.056 3.40669 183.354 3.48223 183.679 3.55776C184.011 3.6333 184.34 3.72016 184.665 3.81836C184.997 3.91655 185.299 4.04874 185.571 4.21492C185.843 4.38109 186.062 4.60014 186.228 4.87207C186.402 5.144 186.489 5.48768 186.489 5.90312C186.489 6.34878 186.364 6.75667 186.115 7.12679C185.866 7.49691 185.492 7.79527 184.993 8.02188C184.502 8.24848 183.879 8.36178 183.124 8.36178Z" fill="white"/>
<g clip-path="url(#clip1_88_89)">
<path d="M0 73.7901L1.68888 70.0347C3.49993 71.3576 6.20213 72.2813 8.78073 72.2813C11.7273 72.2813 12.9246 71.2971 12.9246 69.9728C12.9246 65.9407 0.429766 68.7104 0.429766 60.7082C0.429766 57.0464 3.37632 54 9.48646 54C12.1872 54 14.9512 54.6456 16.9463 55.908L15.4112 59.6936C13.4162 58.5552 11.3593 58.0004 9.45628 58.0004C6.50973 58.0004 5.37279 59.1086 5.37279 60.4632C5.37279 64.4333 17.8676 61.6938 17.8676 69.6038C17.8676 73.2051 14.8894 76.2832 8.75054 76.2832C5.3426 76.2832 1.90448 75.2672 0.00143734 73.7901H0Z" fill="white"/>
<path d="M35.5485 66.4651V75.9141H31.0669V73.852C30.1771 75.3608 28.4581 76.1605 26.0318 76.1605C22.164 76.1605 19.8613 74.0062 19.8613 71.1442C19.8613 68.2822 21.9182 66.1884 26.9532 66.1884H30.7593C30.7593 64.1262 29.5318 62.9258 26.9532 62.9258C25.2039 62.9258 23.3929 63.5109 22.1956 64.4649L20.4765 61.1101C22.2876 59.8174 24.9581 59.1099 27.5985 59.1099C32.6336 59.1099 35.5499 61.4487 35.5499 66.4651H35.5485ZM30.7607 70.6816V68.9884H27.4764C25.2356 68.9884 24.5298 69.8199 24.5298 70.928C24.5298 72.1284 25.5431 72.9282 27.2306 72.9282C28.8275 72.9282 30.2088 72.189 30.7607 70.6816Z" fill="white"/>
<path d="M54.4899 66.4651V75.9141H50.0083V73.852C49.1185 75.3608 47.3995 76.1605 44.9733 76.1605C41.1054 76.1605 38.8027 74.0062 38.8027 71.1442C38.8027 68.2822 40.8596 66.1884 45.8946 66.1884H49.7007C49.7007 64.1262 48.4732 62.9258 45.8946 62.9258C44.1453 62.9258 42.3343 63.5109 41.137 64.4649L39.4179 61.1101C41.229 59.8174 43.8996 59.1099 46.54 59.1099C51.575 59.1099 54.4913 61.4487 54.4913 66.4651H54.4899ZM49.7021 70.6816V68.9884H46.4178C44.177 68.9884 43.4712 69.8199 43.4712 70.928C43.4712 72.1284 44.4846 72.9282 46.172 72.9282C47.7689 72.9282 49.1502 72.189 49.7021 70.6816Z" fill="white"/>
<path d="M57.2222 74.3751L58.8191 70.928C60.2923 71.882 62.5332 72.5291 64.5598 72.5291C66.7704 72.5291 67.5983 71.944 67.5983 71.0203C67.5983 68.3125 57.6218 71.0822 57.6218 64.4649C57.6218 61.3248 60.4461 59.1099 65.2655 59.1099C67.5365 59.1099 70.0548 59.633 71.62 60.5567L70.0231 63.9735C68.3961 63.0497 66.769 62.7428 65.2655 62.7428C63.1167 62.7428 62.1954 63.4201 62.1954 64.2818C62.1954 67.1135 72.172 64.3741 72.172 70.8992C72.172 73.9773 69.3174 76.162 64.3744 76.162C61.5802 76.162 58.7573 75.3925 57.2222 74.3765V74.3751Z" fill="white"/>
<path d="M18.3262 108.847V112.849H1.68896V91.3047H17.9281V95.3051H6.63055V99.9828H16.6071V103.861H6.63055V108.847H18.3262Z" fill="white"/>
<path d="M38.8342 103.369V112.849H34.0449V104.107C34.0449 101.43 32.8175 100.199 30.6988 100.199C28.3962 100.199 26.7389 101.614 26.7389 104.662V112.849H21.9497V96.2909H26.5233V98.2306C27.8126 96.8154 29.7473 96.0459 31.9881 96.0459C35.8862 96.0459 38.8342 98.3228 38.8342 103.371V103.369Z" fill="white"/>
<path d="M60.3844 96.2894V110.078C60.3844 116.234 57.0685 119.064 51.1136 119.064C47.9816 119.064 44.9431 118.294 43.0098 116.787L44.9129 113.34C46.3258 114.479 48.627 115.218 50.7456 115.218C54.1219 115.218 55.5966 113.679 55.5966 110.693V109.985C54.3375 111.37 52.5265 112.047 50.3776 112.047C45.804 112.047 42.1201 108.877 42.1201 104.045C42.1201 99.2133 45.804 96.043 50.3776 96.043C52.6803 96.043 54.5833 96.8125 55.8424 98.4135V96.2894H60.3859H60.3844ZM55.657 104.047C55.657 101.616 53.846 99.9843 51.3277 99.9843C48.8095 99.9843 46.9683 101.616 46.9683 104.047C46.9683 106.478 48.8095 108.109 51.3277 108.109C53.846 108.109 55.657 106.478 55.657 104.047Z" fill="white"/>
<path d="M64.2534 91.3035C64.2534 89.7947 65.4507 88.626 67.2316 88.626C69.0125 88.626 70.2098 89.7342 70.2098 91.2112C70.2098 92.8123 69.0125 93.981 67.2316 93.981C65.4507 93.981 64.2534 92.8108 64.2534 91.3035ZM64.837 96.2896H69.6262V112.847H64.837V96.2896Z" fill="white"/>
<path d="M90.9606 103.369V112.849H86.1714V104.107C86.1714 101.43 84.9439 100.199 82.8253 100.199C80.5227 100.199 78.8654 101.614 78.8654 104.662V112.849H74.0762V96.2909H78.6498V98.2306C79.9391 96.8154 81.8738 96.0459 84.1146 96.0459C88.0127 96.0459 90.9606 98.3228 90.9606 103.371V103.369Z" fill="white"/>
<path d="M111.559 105.923H99.0645C99.5245 107.985 101.275 109.247 103.792 109.247C105.541 109.247 106.8 108.724 107.936 107.646L110.484 110.416C108.949 112.17 106.647 113.094 103.67 113.094C97.9606 113.094 94.2451 109.492 94.2451 104.568C94.2451 99.6442 98.021 96.043 103.056 96.043C108.091 96.043 111.651 99.3055 111.651 104.63C111.651 104.999 111.59 105.522 111.559 105.923ZM99.0042 103.123H107.14C106.802 101.03 105.236 99.6759 103.088 99.6759C100.939 99.6759 99.3419 100.999 99.0042 103.123Z" fill="white"/>
<path d="M130.931 105.923H118.437C118.897 107.985 120.647 109.247 123.164 109.247C124.913 109.247 126.172 108.724 127.308 107.646L129.856 110.416C128.321 112.17 126.019 113.094 123.042 113.094C117.333 113.094 113.617 109.492 113.617 104.568C113.617 99.6442 117.393 96.043 122.428 96.043C127.463 96.043 131.023 99.3055 131.023 104.63C131.023 104.999 130.962 105.522 130.931 105.923ZM118.375 103.123H126.51C126.172 101.03 124.607 99.6759 122.458 99.6759C120.309 99.6759 118.713 100.999 118.375 103.123Z" fill="white"/>
<path d="M144.47 96.0444V100.477C144.071 100.447 143.765 100.415 143.397 100.415C140.756 100.415 139.007 101.862 139.007 105.032V112.85H134.218V96.2923H138.791V98.477C139.959 96.8759 141.923 96.0459 144.47 96.0459V96.0444Z" fill="white"/>
<path d="M146.742 91.3035C146.742 89.7947 147.939 88.626 149.72 88.626C151.501 88.626 152.699 89.7342 152.699 91.2112C152.699 92.8123 151.501 93.981 149.72 93.981C147.939 93.981 146.742 92.8108 146.742 91.3035ZM147.324 96.2896H152.114V112.847H147.324V96.2896Z" fill="white"/>
<path d="M173.45 103.369V112.849H168.661V104.107C168.661 101.43 167.433 100.199 165.315 100.199C163.012 100.199 161.355 101.614 161.355 104.662V112.849H156.565V96.2909H161.139V98.2306C162.428 96.8154 164.363 96.0459 166.604 96.0459C170.502 96.0459 173.45 98.3228 173.45 103.371V103.369Z" fill="white"/>
<path d="M195 96.2894V110.078C195 116.234 191.684 119.064 185.729 119.064C182.597 119.064 179.558 118.294 177.625 116.787L179.528 113.34C180.941 114.479 183.242 115.218 185.361 115.218C188.737 115.218 190.212 113.679 190.212 110.693V109.985C188.953 111.37 187.142 112.047 184.993 112.047C180.419 112.047 176.735 108.877 176.735 104.045C176.735 99.2133 180.419 96.043 184.993 96.043C187.296 96.043 189.199 96.8125 190.458 98.4135V96.2894H195.001H195ZM190.272 104.047C190.272 101.616 188.461 99.9843 185.943 99.9843C183.425 99.9843 181.584 101.616 181.584 104.047C181.584 106.478 183.425 108.109 185.943 108.109C188.461 108.109 190.272 106.478 190.272 104.047Z" fill="white"/>
<path d="M1.68896 128.239H11.4514C18.4814 128.239 23.3009 132.486 23.3009 139.011C23.3009 145.536 18.4814 149.783 11.4514 149.783H1.68896V128.239ZM11.2056 145.689C15.4731 145.689 18.2658 143.134 18.2658 139.01C18.2658 134.885 15.4716 132.33 11.2056 132.33H6.66217V145.688H11.2056V145.689Z" fill="white"/>
<path d="M42.7942 142.859H30.2994C30.7593 144.921 32.51 146.183 35.0268 146.183C36.7761 146.183 38.0352 145.66 39.1707 144.582L41.7191 147.352C40.184 149.106 37.8814 150.03 34.9046 150.03C29.1955 150.03 25.48 146.428 25.48 141.504C25.48 136.58 29.2559 132.979 34.2909 132.979C39.3259 132.979 42.8862 136.242 42.8862 141.566C42.8862 141.935 42.8244 142.458 42.7942 142.859ZM30.239 140.058H38.3744C38.0366 137.965 36.4713 136.61 34.3225 136.61C32.1737 136.61 30.5768 137.933 30.239 140.058Z" fill="white"/>
<path d="M73.9841 140.304V149.783H69.1949V141.042C69.1949 138.364 67.9976 137.134 66.0629 137.134C63.9141 137.134 62.4092 138.518 62.4092 141.473V149.783H57.62V141.042C57.62 138.364 56.4845 137.134 54.488 137.134C52.3693 137.134 50.8659 138.518 50.8659 141.473V149.783H46.0767V133.225H50.6503V135.133C51.8778 133.718 53.7205 132.979 55.8377 132.979C58.1403 132.979 60.1051 133.871 61.2708 135.687C62.5903 133.994 64.7391 132.979 67.2257 132.979C71.1554 132.979 73.9798 135.256 73.9798 140.304H73.9841Z" fill="white"/>
<path d="M77.2397 141.504C77.2397 136.518 81.0774 132.979 86.3266 132.979C91.5758 132.979 95.3819 136.518 95.3819 141.504C95.3819 146.49 91.5758 150.03 86.3266 150.03C81.0774 150.03 77.2397 146.49 77.2397 141.504ZM90.5309 141.504C90.5309 138.642 88.7198 136.919 86.3252 136.919C83.9306 136.919 82.0893 138.642 82.0893 141.504C82.0893 144.366 83.9306 146.09 86.3252 146.09C88.7198 146.09 90.5309 144.366 90.5309 141.504Z" fill="white"/>
<path d="M107.601 128.239H117.363C124.393 128.239 129.212 132.486 129.212 139.011C129.212 145.536 124.393 149.783 117.363 149.783H107.601V128.239ZM117.117 145.689C121.385 145.689 124.177 143.134 124.177 139.01C124.177 134.885 121.383 132.33 117.117 132.33H112.574V145.688H117.117V145.689Z" fill="white"/>
<path d="M147.233 140.334V149.783H142.751V147.721C141.862 149.23 140.143 150.03 137.716 150.03C133.849 150.03 131.546 147.875 131.546 145.013C131.546 142.151 133.603 140.058 138.638 140.058H142.444C142.444 137.995 141.216 136.795 138.638 136.795C136.888 136.795 135.077 137.38 133.88 138.334L132.161 134.979C133.972 133.687 136.643 132.979 139.283 132.979C144.318 132.979 147.234 135.318 147.234 140.334H147.233ZM142.444 144.551V142.858H139.159C136.919 142.858 136.213 143.689 136.213 144.797C136.213 145.998 137.226 146.797 138.914 146.797C140.511 146.797 141.892 146.058 142.444 144.551Z" fill="white"/>
<path d="M167.647 133.226L160.188 150.799C158.591 154.801 156.32 156.002 153.342 156.002C151.653 156.002 149.811 155.448 148.736 154.493L150.486 151.076C151.223 151.723 152.235 152.122 153.186 152.122C154.506 152.122 155.243 151.537 155.887 150.06L155.949 149.906L148.797 133.224H153.74L158.375 144.459L163.041 133.224H167.646L167.647 133.226Z" fill="white"/>
</g>
<defs>
<clipPath id="clip0_88_89">
<rect width="108.801" height="19.8667" fill="white" transform="translate(0 0.931152)"/>
</clipPath>
<clipPath id="clip1_88_89">
<rect width="195" height="102" fill="white" transform="translate(0 54)"/>
</clipPath>
</defs>
</svg>
